<svg id="Layer_1" data-name="Layer 1" xmlns="http://www.w3.org/2000/svg" viewBox="0 0 131.03 300"><title>Sports-icons</title><g id="vfBm4R"><path d="M0,82.86C2.47,74.24,4.76,65.55,7.46,57c3.18-10,10.16-11.95,17.29-3.92-13.54,7-10,21.3-13.73,32.72a6,6,0,0,0,5.73,8c10.52.19,10.52.19,20.94,6.08.09-2,.45-3.47.17-4.87C36.32,87.38,40,78.73,47,76.08c2.66-1,6.47-.17,9.32.94,2.47,1,4.51,3.32,6.4,5.38,5.48,6,5.28,13.29-.12,19.42a8.93,8.93,0,0,0-2,4.53c-.06.47,2.2,1.84,3.32,1.77,7.43-.49,13,3.45,18.63,7.34,1.65,1.14,3.2,2.7,5,3.24,2.76.81,5.73.88,8.61,1.26.1-2.6.76-5.32.21-7.78-2.38-10.69-3.74-21.8-10.54-31C81.27,75,76.72,68.57,71.45,62.87c-1.52-1.64-5.44-1.56-8.22-1.43C51.36,62,41.48,50.8,44.63,40.06c2.06-7,6.7-9.77,15.39-9.1C71,31.82,78.23,44.4,74,54.41c-1,2.34-.65,6.69.94,8.45,7.48,8.32,15.46,16.23,23.57,23.94,4.49,4.27,7.87,8.29,5.76,15.16-.72,2.34.84,5.35,1.28,8.07,1.06,6.65,2.77,13.3,2.92,20s-2.32,7.53-8.82,6.78a248.75,248.75,0,0,0-25.76-1.42c-3.95,0-8.91,11.17-7.31,15.64,2.08,5.77,3.83,11.69,6.3,17.3,2.57,5.84,5.78,11.4,8.81,17,1.13,2.12,3.23,4,3.66,6.18,2.46,12.66,13.1,18.3,22.36,23.69a47.94,47.94,0,0,1,17.19,16.67c2.9,4.71,4.2,10.56,5.42,16.07.37,1.67-1.47,4.9-3.1,5.66s-5,.15-6.54-1.11a16.74,16.74,0,0,1-5.16-7.15c-4.62-13.11-12.85-22-26.26-26.86-6.26-2.29-11.31-7.84-17-11.81a52,52,0,0,0-9.67-5.39c4.33,7,2.71,11.92-3.38,16.39-3.1,2.28-.56,14.34,3.13,19.76,5.17,7.61,10.35,15.23,15.15,23.08,3.19,5.2,7.07,9.14,13.1,10.72s9.49,4.61,7.57,11.72c-.86,3.19.52,7-.32,10.17-.67,2.53-3.17,4.59-4.85,6.86-1.49-1.35-3.52-2.43-4.38-4.11-9.18-17.8-23-32-35.25-47.55C40.88,232.61,30.65,214.81,29,193.73c-.68-8.6-1.45-17.2-2.52-25.75-.25-2-1.64-4-2.88-5.71-3.62-5-5.17-10.2-2.72-16.35a16.81,16.81,0,0,0,.57-7.56c-.46-4.76-1.66-9.45-2-14.21-.38-5.39-2.21-8.37-7.95-10.25-4.37-1.44-7.68-6.09-11.46-9.31Z"/><path d="M25.9,3.55a58.78,58.78,0,0,1,6-2.54c6.87-2,7.33-1.52,6.87,5.79-.19,3.11-.13,6.23-.19,9.35l-2,.19Z"/></g></svg>