<svg id="Layer_1" data-name="Layer 1" xmlns="http://www.w3.org/2000/svg" viewBox="0 0 177.54 300"><title>Sports-icons</title><g id="VqaraT"><path d="M87.34,232.06c-5.82-9.49-11.48-18.68-17.09-27.9-1.75-2.86-2.19-3.12-4.85-1A55.23,55.23,0,0,0,58.09,210C51.27,218,44,225.15,34.41,228.41c-.77,2.75-1.51,5.07-2,7.44a22.46,22.46,0,0,0-.39,4.34c-.09,4.64.15,9.31-.25,13.93-.22,2.62-1.86,5.12-2.1,7.74-.6,6.67-.7,13.39-1.14,20.08a41.64,41.64,0,0,1-1.09,6.84,4.4,4.4,0,0,1-1.63,2.5c-1.79,1.15-2.28,2.19-.78,4,1.16,1.41.37,2.48-1.18,2.88a48,48,0,0,1-19.38,1.26c-.85-.13-2.2-1.57-2.13-2.29A17.49,17.49,0,0,1,4,290.59c1.13-2.08,2.09-3.79,1-6.2a9.62,9.62,0,0,1-.42-3.86c-.1-16.68-.15-33.37-.26-50.06,0-2.69-.59-5.42-.3-8.06a45,45,0,0,1,2.15-8.81c.88-2.71,2.19-5.27,3.23-7.93s1.83-5.48,3-8.1c2.25-4.95,5-6.57,10.26-5.23,3.26.84,5.3,0,6.94-2.58,2.31-3.65,6.2-6,7.71-10.44.86-2.56,3.77-4.42,5.75-6.59l5.56-6.12c-4.15-4-3.15-7.31,2.2-9.07.74-3.6,1.55-7.11,2.16-10.66a13.1,13.1,0,0,0-.07-4.19c-1-6.23-2.16-12.44-3.18-18.67a31,31,0,0,0-1.17-6,57.72,57.72,0,0,0-3.92,4.65c-1.91,2.82-2.77,3.19-5.1.71-3.79-4-7.64-5.48-13.41-3.88-7.48,2.08-9.32.26-11.22-7.38A95.48,95.48,0,0,1,11.8,86.69c.08-3.06-1.08-6.16-1.66-9.15-5.29-.72-6.42-1.92-8-6.92C1,66.8,1,63.76,4.67,61.14c1.88-1.34,2.9-3.84,4.58-5.54,3.34-3.37,6.61-6.9,10.4-9.69,3.3-2.43,6.93-2,11.09.19,7.93-8.54,16.09-17.1,24-25.9,5.41-6,10.47-12.38,15.63-18.63C71.4.3,72.41-.64,74.11.23s1.67,2.33,1.16,4c-3.7,12.57-10,23.74-19.35,32.84-5,4.84-10.89,8.72-16.38,13-.59.46-1.2.89-1.79,1.36-2.31,1.85-2.57,3.32-.7,6l-3.5,1.67c-.76,1.7-2,3.19-1.95,4.66a12,12,0,0,0,1.67,6.29c4.42,6.41,9.22,12.56,13.51,18.32L63.3,84.61c-1.86-4.64-3.62-9.09-5.43-13.52-.63-1.55-1.93-3.23,1.32-3.35.41,0,.92-1.41,1.13-2.22C61.86,59.46,64.6,54.28,71,52.19,80.8,49,89.07,54.63,90.61,65.28c.32,2.18,1.52,4.24,2.39,6.54l-1.31.57c.3,2.93.61,5.86,1,9.2l-2.8,2.63c1.72,3.79,2.71,7.64,4.94,10.52,3.67,4.72,4.6,10.22,5.92,15.64.47,1.9,0,4-.07,6,0,5.1.12,10.22-.18,15.3-.16,2.85-1.49,5.64-1.54,8.47-.08,4.44.52,8.9.76,13.35.13,2.35.14,4.69.16,7,0,1.38-.42,2.88,0,4.12,1.14,3.43,2.61,6.76,4,10.12a18.4,18.4,0,0,1,1.37,10.89c-.25,1.2.31,2.58.54,3.86,0,.27.41.62.33.74-2.34,3.52.93,6.22,1.42,9.3a206.19,206.19,0,0,0,4.39,21.83c1.06,3.82,3.61,7.25,5.58,10.8.22.39,1.15.32,1.71.58.91.41,2.28.7,2.58,1.41,1.1,2.61,3.46,2.84,5.65,3.72,5,2,8.09,6.12,11.19,10.23,1.51,2,3,4,4.7,5.87,1.38,1.55,2.68,3.39,5.3,2.82.48-.11,1.24.41,1.68.84,2.75,2.64,5.43,5.34,8.16,8,2.94,2.88,3,3.14,1.17,7l-1.05,2.18c3.46,1,4.35,3.48,4.31,6.66a53.58,53.58,0,0,0,.46,6.69c.29,2.52-.81,4.41-3.09,4.95a63.67,63.67,0,0,1-10.66,1.52,3.64,3.64,0,0,1-2.86-2c-.8-3.75-1.17-7.6-1.66-11.17a14.81,14.81,0,0,1-2.76-.85c-12.2-7-24.46-13.85-36.52-21.07A57,57,0,0,1,95,251.16c-3.13-3.11-5.66-6.83-8.31-10.39C84.39,237.63,84.71,235.23,87.34,232.06ZM26.91,104.46c2.6-1.7,5.08-3.52,7.74-5,2-1.1,2-2.19.64-3.66-3.82-4.11-6-9.06-7.74-14.3-1.31-3.93-3-7.73-4.49-11.58-2.38,4.88-2.29,6.8-.44,9-.67,1.77-2.15,3.67-1.79,5.1C22.55,90.78,24.77,97.45,26.91,104.46ZM89.58,81c1.75-2.41,1-4.92.13-7.45C87.59,76,89.33,78.52,89.58,81ZM59.12,71.42l2.26,6.1.73-.28C61.27,75.44,63.8,72.42,59.12,71.42Z"/><path d="M167.37,79.53a9.23,9.23,0,0,1-.24-18.45,9.23,9.23,0,1,1,.24,18.45Z"/></g></svg>