<svg id="Layer_1" data-name="Layer 1" xmlns="http://www.w3.org/2000/svg" viewBox="0 0 313.2 300"><title>Sports-icons</title><g id="_5sEu7n" data-name="5sEu7n"><path d="M188.83,196.47l-40.49,36.58c1.48,1.75,2.78,2.7,3.26,4,.82,2.2,1.77,4.72,1.33,6.83-.18.89-3.69,1.4-5.73,1.55a36.27,36.27,0,0,1-6.72-.49c-6.07-.68-8.66,1.82-8.58,8.08.21,15.34-2.6,17.19-17.92,21.15-5.73,1.49-10.44,3-16.23,1.28-1.5-.44-4.24,1.86-5.83,3.48-16.2,16.47-35.34,19.92-56.39,11.92C14.82,283,2.65,267.25.32,245.38-2,223.12,8.83,206.7,27.67,196c13.23-7.49,27.92-9.44,42.66-4.21,4.91,1.75,7.26.49,9.52-3.64,3.36-6.13,7.19-12,10.64-18.07,4.91-8.67-1.47-24.59-11.55-29.77A35,35,0,0,1,70,134c-1.34-1.36-1.25-4.13-1.81-6.26,2.15-.54,4.41-1.79,6.44-1.49,7.34,1.08,14.59,2.78,21.91,4,1.59.27,3.33-.37,5.9-.71-.69-2.82-1.22-5.16-1.82-7.47-3.4-13.11-2.2-25.47,7.28-35.76,13.34-14.48,26.78-28.9,40.78-42.73,10-9.85,22.45-15.36,34.46-15.91,1.79-7.38,2.83-13.34,4.7-19,2.17-6.58,9.61-10,16.29-8.17s9.39,7.81,8.79,15.22a27.55,27.55,0,0,1-9.7,19.3c-3.22,2.88-4.36,6.09-2.49,11.2,1.5,4.1-.4,9.63-1.4,14.39-.54,2.59-2.37,4.9-3.6,7.34-9.7,19.27-4.22,38.75-.69,58.17.27,1.49,1.43,3.75,2.55,4,9.19,2.06,18.42,5,27.71,5.23,16.66.43,33.37-.89,50.06-1.39,8-.24,16,.09,23.92-.61,2.32-.2,4.35-3.15,6.62-4.66,1.65-1.1,3.49-1.9,5.24-2.84.65,1.92,2,4,1.76,5.73a14.9,14.9,0,0,1-3.3,7.41c-1.21,1.33-5.6,2.06-5.81,1.64-3.36-6.49-9-3.79-13.83-3.66q-37,1-74.08,2.28c-7.77.27-9.39,3.53-9.59,11.22-.08,3.15-4.28,7.48-7.62,9-5.36,2.4-7.18,4.83-5.84,10.75,2.27,10.09,3.64,20.38,5.24,29.66,9.58,1,19.39.81,28.51,3.21,24.64,6.5,39.37,30.25,35.7,55.76-3.35,23.34-24.3,39.85-49.11,41.11-29.72,1.52-56.68-23.47-53.58-54.74,1.83-18.41,12-31.38,28.34-39.48C192.64,203.37,193.35,201.08,188.83,196.47Zm4,13.72c-6.9,6.66-14.13,11.6-18.63,18.36-11.21,16.84-8,38.09,6.44,51.88,14.94,14.25,38.25,16.56,55.15,5.47A42,42,0,0,0,252.37,236c-6.52-18-27.19-30.33-46-27.58-5,.73-7.63,2.36-5.77,8.33,2.2,7.09,3.26,14.53,5,21.77.89,3.63,2.15,6.45,7,7.47,2.08.44,4.1,6.08,4.11,9.37,0,1.76-4.32,3.53-6.7,5.3-1.91-3.05-4.11-6-5.6-9.21-.59-1.29,1-3.51.57-5C201.37,235.19,197.48,224,192.82,210.19ZM72.24,202.13c-14.87-9.91-43.42-5.48-58.21,17.65-12.75,19.95-4.36,47.76,17.7,60.58,19.82,11.52,45.39,7.29,54.25-9-6.37-7-27.45-2.83-15.59-24.4-5.08.49-8.47,1.25-11.78,1-3.08-.24-8.36-1.09-8.65-2.5-.67-3.25.66-7.19,2.07-10.47.86-2,3.94-2.95,5.06-4.92C62.25,221,67.07,211.76,72.24,202.13ZM141.79,230c15.14-13.29,30.17-26.39,45-39.65,3.28-2.92,2.15-14.5-1.21-16.3-5.28-2.83-18.37.07-22.34,4.93-7.59,9.27-15.07,18.63-22.81,27.78C133,215.6,131.13,222.52,141.79,230Zm52.76-77.54c-2.66-3.9-4.18-7-6.46-9.33-5.36-5.55-11.28-10.57-16.6-16.15C162,117,155.2,105.75,157.18,91c-14.16,3.34-17.33,12.35-8.72,23.16C161,129.89,171,146.74,174.05,167.41l10.48,1.38c-.46-5.66-.85-10.38-1.23-15ZM142.91,171c-3,0-6.42.35-9.73-.09-5-.66-7.74.61-8.85,6.12a23.13,23.13,0,0,1-5.44,10.32c-11.32,12.51-11.55,22.38-6.07,39.88C123.11,207.94,132.75,189.94,142.91,171ZM77.15,205.07C72.1,214.87,67,224.28,62.4,233.9c-1.69,3.51-2.06,7.32,3.11,8.95,4.47,1.41,8.57,3.16,10.34-3.7C78,231,80.74,223,83.18,214.85,84.63,210,83.4,206.57,77.15,205.07Zm54.48-55.59c-1.42,5.85-2.49,10.23-3.84,15.79l19.35,1.31C144.94,157.18,137.75,155,131.63,149.48ZM93.74,172.37c-10.26,14.37-12.55,23.57-6.34,27.49C90.3,190.92,101.94,184.63,93.74,172.37Zm9.64-33.65c-4.52,2.78-9,4.41-8.87,5.65.52,6,2.26,11.89,3.56,17.82l2.94-.42C101.72,154.87,102.43,148,103.38,138.72Zm-6.89,90-3.12-.24c-.88,5.65-2,11.28-2.44,17-.09,1.13,2.29,2.46,3.53,3.7,1.14-1.27,3.25-2.56,3.24-3.82C97.63,239.81,97,234.27,96.49,228.74Zm7-11.38-1.51.32q2.57,12.06,5.12,24.11l2.13-.46Q106.38,229.35,103.5,217.36Z"/></g></svg>