<svg id="Layer_1" data-name="Layer 1" xmlns="http://www.w3.org/2000/svg" viewBox="0 0 298.76 300"><title>Sports-icons</title><g id="_5UCUQW" data-name="5UCUQW"><path d="M270.93,19.36c3.27-3.69,5.91-6.92,8.83-9.88,3.5-3.54,7.74-3.75,10.68-.84s2.78,7.19-.69,10.71c-2.92,3-6.1,5.69-9.75,9,4.71,4.47,8.89,8.16,12.75,12.15,12.43,12.86,7.51,31.13-9.72,36.17-10.84,3.17-21.76,6.08-32.59,9.29a13.57,13.57,0,0,0-5.5,3.12c-11.84,11.65-23.49,23.5-35.35,35.14-2.22,2.18-2.15,3.68-.66,6.27C247.6,198.1,210,281.2,133.61,297.21,72.75,310,11.41,267.55,1.5,205.88-8.26,145.1,30.51,88.75,90.5,77c27.38-5.36,53.38-.87,77.61,13,3.21,1.84,4.89,1.51,7.38-1,11.27-11.56,22.83-22.85,34.13-34.38a15.63,15.63,0,0,0,3.58-6.25c3.21-10.67,6.1-21.44,9.21-32.14,5.07-17.45,23.44-22.25,36.46-9.5C262.73,10.46,266.34,14.52,270.93,19.36ZM161.87,103.05c-37.55-23.14-93.51-18.33-126.55,23-32,40.06-27.52,97.7,10.38,133.18,36.47,34.14,95.37,34.21,132.27.46,38.85-35.54,39.06-90.14,17.88-122.48-4.15,4.45-8,8.88-12.21,13-2,2-2.21,3.49-1,6a72.77,72.77,0,0,1,6,40.46c-5.55,43.78-45.44,73.43-89,66.5a77.08,77.08,0,0,1-62.37-57.4c-7.39-30.43,3.82-62.42,28.92-80.55,23.92-17.28,49.8-19.79,77.13-8.75,1.36.55,3.77.56,4.74-.28C152.62,112.14,157,107.73,161.87,103.05Zm7,60c-4.84,5.42-9.74,10.8-14.46,16.32-.63.74-.54,2.29-.42,3.42,2.87,27.05-20.58,49.58-47.77,45.86C84.89,225.77,68.51,206.24,70,185.47c1.63-23.47,20.11-41.28,42.71-40.36,5.09.21,8.25-1,11.38-4.69,3.43-4,7.45-7.6,11.43-11.6-27.08-11.42-59.08-1.44-75.58,23a63,63,0,0,0,87.48,87.48C171.68,222.77,181.75,190.39,168.87,163.08Zm49.68-97c-.91.84-1.61,1.44-2.26,2.09q-41.5,41.49-83,83c-.88.87-2.24,1.76-2.39,2.78-.5,3.5-1.43,7.3-.55,10.54a7.51,7.51,0,0,0,8.79,5.35,18.69,18.69,0,0,0,9.17-4.49q41.25-40.77,82.12-81.92c.93-.93,1.74-2,2.45-2.83ZM139.42,185.49q-12.61-7.25-20.46,4.64a8.84,8.84,0,0,1-1.65,1.64c-3.51,3.09-7.46,3.13-10.32.13s-2.69-6.69.34-10c2.63-2.85,5.53-5.44,8.13-8.3.82-.9,1.64-2.45,1.43-3.49-.72-3.57-1.9-7-2.88-10.5a27,27,0,0,0-27.46,16,28,28,0,0,0,38.94,36C135.37,206.21,141.21,195,139.42,185.49ZM241,69c2.24,1,4.73,3.29,6.55,2.85C258.79,69.06,270,65.88,281,62.46a6.51,6.51,0,0,0,2.89-10.35c-4.2-4.65-9-8.78-13.23-12.85Zm19.19-40.49a3.85,3.85,0,0,0-.6-1C256.09,24,252.6,20.43,249,17c-5.47-5.34-11-3.89-13.15,3.51-2.72,9.36-5.07,18.84-8,28.13-1.34,4.26-.77,7.14,3.35,9Z"/></g></svg>