<svg id="Layer_1" data-name="Layer 1" xmlns="http://www.w3.org/2000/svg" viewBox="0 0 128.89 300"><title>Sports-icons</title><g id="CKEUln"><path d="M67.52,163.55c.67,3.28,1.46,6.53,2,9.83.66,4.19,2.56,7.82,4.72,11.35,3.21,5.25,5,11,6.43,17a55.07,55.07,0,0,1,1.48,5.42c.7,4.81-2.76,8.07-8.24,9.28-5.25,1.15-8.76-1.62-12.78-3.91-4.77-2.7-7.18-7.42-10.66-11.23A62,62,0,0,0,44,195.32c.21,5-3.24,8.11-5.29,11.88a4.39,4.39,0,0,1-4.28,2.56,4.49,4.49,0,0,1-3.79-3.25c-1.37-3.64-1-7.4-.88-11.16.18-4.64.24-9.28.35-13.92a23.08,23.08,0,0,0,0-2.63c-.33-3.25.62-5.75,3.75-7.23a16.9,16.9,0,0,0,2.59-1.86c-3-4.09-4-8.88-5.21-13.58-2.11-8.3-4-16.66-6-25-1.22-5-3.16-9.87-3.58-14.9a77,77,0,0,1,.87-16.45,211.5,211.5,0,0,0,1.63-27.87L15.76,82.46c-1.13,1.42-2.22,2.87-3.4,4.25a5.12,5.12,0,0,0-1.45,3.89c.55,9.13.67,18.31,1.64,27.4.76,7.13,2.58,14.15,3.82,21.23a13.5,13.5,0,0,1-.92,8.82,4,4,0,0,1-4.29,2.37,7.46,7.46,0,0,1-6.73-9.11c.62-2.81,1.09-5.67,1.9-8.42,1-3.29-.16-6.34-.75-9.43-1.35-7-2.86-14-4.29-21a10.87,10.87,0,0,1-.14-2.06c0-2.89.18-5.79,0-8.67A36.54,36.54,0,0,1,4.26,74.46C7.14,67.57,9.8,60.57,14.37,54.62,18.68,49,23.54,43.84,29.83,40.27c3.05-1.73,6-3.58,9-5.48a2.22,2.22,0,0,0,.86-1.71c-.67-5.54-1.59-11-2.13-16.59a26.52,26.52,0,0,1,.36-7.65c1-4.9,4.68-8.15,9.8-8.79A20.51,20.51,0,0,1,58.17,1.49c5.64,2.34,7.72,7.06,8.14,12.7.31,4.24.22,8.52.45,12.77a6.21,6.21,0,0,0,1.06,2.8c2.48,3.93,6.58,5.46,10.71,6.73A18,18,0,0,1,87.83,43a108.83,108.83,0,0,0,8.67,9.91c2.7,2.74,3.55,6.29,4.84,9.63,3.29,8.52,6.51,17.07,9.51,25.7,1.62,4.65,2.71,9.49,4,14.24.22.78.46,1.56.73,2.46,2.49-.12,3.47,1.6,4.13,3.56,1.21,3.56,2.09,7.13,0,10.72-1.1,1.93-2.76,2.87-4.87,2.13a82.31,82.31,0,0,1-7.69-3.43,1.41,1.41,0,0,1-.56-1c-.54-5.49-.81-11-1.64-16.45a17.67,17.67,0,0,0-2.9-6.79C97.2,86.29,92,79,86.93,71.75a4.67,4.67,0,0,0-1.54-1.32c-1.7-.93-3.45-1.77-5.54-2.83-.57,3-1.24,5.75-1.61,8.56A186.21,186.21,0,0,0,76.58,106c.11,4.17.49,8.24,2.72,11.89.78,1.27,1.76,2.4,2.53,3.68a20.23,20.23,0,0,1,2.44,4.61c2.21,7.8,8.52,14.89,12.62,21.79,5,8.52,7.72,16.91,12.35,25.65,1.66,3.12,2.19,6.87,3,10.38.5,2.12.49,4.36.85,6.52.86,5.26-.51,10.34-1,15.5-.64,6.66-.94,13.36-1.27,20.05-.5,10-.9,20.07-1.34,30.1,0,.31-.16.7,0,.93,1.82,3,2.72,6.87,6.71,7.83a16.15,16.15,0,0,1,10.52,8.12c.9,1.53.65,2.26-1.12,2.69a10.56,10.56,0,0,1-3.15.4c-5.3-.41-10.69-.46-15.86-1.53C98.48,273,94.75,268.24,94.75,260c0-5.81.87-11.63,1.09-17.45.24-6.27.47-12.57.11-18.83-.2-3.56-1.47-7.09-2.47-10.58-1.35-4.74-2.31-9.5-1.88-14.44a11.89,11.89,0,0,0-1.8-7.27c-2.09-3.63-4.57-7.31-6.59-11.3-1.73-4.29-5-6.34-7.87-9.74-2.27-2.72-4-5.49-7.1-7Z"/><path d="M40.56,276a23.63,23.63,0,1,1,23.63,23.85A23.6,23.6,0,0,1,40.56,276Z"/></g></svg>