<svg id="Layer_1" data-name="Layer 1" xmlns="http://www.w3.org/2000/svg" viewBox="0 0 202.11 300"><title>Sports-icons</title><g id="h36o7f"><path d="M78.84,225.92C74.33,232.21,69.68,237.84,66,244c-6,10-14,17.92-23.37,24.68-2.43,1.75-5.24,3.32-5.94,6.73-.06.32-1.09.51-1.7.65-.77.18-1.77,0-2.32.4-5.53,4.26-11.11,8.48-16.42,13-2.12,1.82-3.66,4.34-5.32,6.66-1.55,2.16-3.06,4-6.15,3.82s-5.42-2.28-4.58-5.44a132.85,132.85,0,0,1,5-14.74,37.43,37.43,0,0,1,4-6.79c1.57-2.37,1.78-5,2.18-7.71a49.64,49.64,0,0,1,2.42-10.09c1.1-2.92,3.78-3.89,6.87-3.38.91.15,1.85.18,2.76.35,2.12.4,4.07.51,5.17-1.93a2.22,2.22,0,0,1,1.26-1.11c4.23-1.15,5.4-4.85,6.77-8.24,3.44-8.57,7.86-16.45,14.69-22.85a114.48,114.48,0,0,0,8.45-8.76,16.87,16.87,0,0,0,4.08-9.69c.24-2.5,1.59-4.88,2.11-7.38a78.21,78.21,0,0,0,1.49-9.86c.29-3.61.28-7.26.23-10.89a4.78,4.78,0,0,0-1.08-2.67c-2.69-3.41-4.59-6.95-3.94-11.56.22-1.53-.6-3.19-.87-4.8-.56-3.3-1.15-6.59-1.53-9.9a6.12,6.12,0,0,1,.56-3.33c1.69-3.32,1.07-6.85,1.14-10.3a2.72,2.72,0,0,0-1.19-1.75,5.73,5.73,0,0,1-2.6-6.4,40,40,0,0,0,.05-16,5.43,5.43,0,0,0-.71-2c-3.87-5.55-7.79-11.08-11.7-16.61-2.25-3.18-5.27-4.63-9.22-4.94A84.83,84.83,0,0,1,24.13,79.1,16.26,16.26,0,0,1,19,76.61c-2.23-1.5-3-3.71-2.91-6.49.05-2.56-.75-5.13-1-7.71-.29-3.1-.41-6.21-.56-9.31,0-.71.32-1.49.12-2.12A15.82,15.82,0,0,1,14.1,42c.45-1.78-.25-3.4-1.33-5-3.22-4.71.47-12.41,5.91-11.36a4.58,4.58,0,0,0,1.85-.34c.49-.12,1-.55,1.41-.41,3.77,1.47,8-.94,11.64,1.46A11.06,11.06,0,0,0,39.88,28c.77,0,1.54-.19,2.32-.2a32.07,32.07,0,0,1,3.67.1c1.74.18,3.45.5,5.18.76l.33-.54c-.45-.75-.88-1.51-1.36-2.24-4.65-7-4.43-11.34,1.16-17.71a23.15,23.15,0,0,1,14-8A14.79,14.79,0,0,1,81.09,7.85a2.19,2.19,0,0,0,2.7,1.31c3.22-.55,6.48-.9,9.7-1.32,1.44,3.68-.09,5.74-7.8,10.58a28.94,28.94,0,0,0,1.85,3.25c1.24,1.67,1.17,3-.77,4a2.77,2.77,0,0,0-.61.48c.6,2.44,1.17,4.71,1.73,7l-.56.15c.1.09.21.28.29.27,6.8-1.28,11.37,2.3,15.48,7a3.34,3.34,0,0,0,2,1q24.53,3.21,49.05,6.31c5.45.7,10.89,1.53,16.35,2.07a65.21,65.21,0,0,0,8.73,0c.58,0,1.15-.7,1.69-1.12,3.59-2.79,7-5.87,10.82-8.31s7.39-.89,8.81,3.58a13.84,13.84,0,0,1-.83,10.41c-1,2-2.84,2.74-4.93,2.85-4,.22-7.56-1-11.09-2.72a17.79,17.79,0,0,0-5.18-1.74c-18.11-2.29-36.24-4.48-54.36-6.68-5.45-.67-10.91-1.29-16.37-1.93-.91-.1-1.82-.17-3.06-.29.16,1.2.39,2.22.42,3.24.07,3,.14,6,.07,9s0,5.88,1.24,8.79c.74,1.7.26,3.91.39,5.88.17,2.75.38,5.49.61,8.23.45,5.39,1.08,10.78,1.34,16.18.38,8,0,16,2.32,23.78.63,2.14.6,4.27-2,5.37a2,2,0,0,0-.76,1.71c.46,3.76.48,7.51,2.59,11.06,2.29,3.87,2,8.45.87,12.73-1.49,5.51-3.23,10.95-5,16.38a64.77,64.77,0,0,0-2.91,29.14c.8,5.92-.87,11.62-1.6,17.41a124.71,124.71,0,0,0-.51,12.54c-.11,3.85,0,7.71-.24,11.55-.6,8,.92,15.61,3.09,23.2.78,2.74,1.33,5.53,1.9,8.32a3.79,3.79,0,0,1-.1,2.32c-1.73,3.27.63,4.9,2.5,6.8,2.71,2.75,6.3,3.81,9.68,5.33a22.07,22.07,0,0,1,5,2.86c2.45,2,2.21,4.92-.66,6.2a20.73,20.73,0,0,1-7.78,2c-4.1.1-8.21-.63-12.32-.87-2.52-.14-5.06.07-7.59-.08a59.67,59.67,0,0,1-7.78-.95c-.6-.12-1.25-1.23-1.41-2-.23-1.09.06-2.29-.08-3.41a2.7,2.7,0,0,0-.93-1.8c-1.58-1-1.83-2.16-1.3-3.82a14.58,14.58,0,0,0-.27-9.88,35.48,35.48,0,0,1-2.21-17.23c.61-5.5-.64-10.8-1.32-16.17C79.41,234.11,79.22,230.42,78.84,225.92ZM30.26,57.09l1.43-1.24c2.64-2.34,5.43-4.14,9.26-3.3a4.61,4.61,0,0,0,2.82-.7c2-1.09,3.92-2.33,5.84-3.56,2.53-1.62,2.57-4.23,0-5.74a26.46,26.46,0,0,0-4.29-1.76A33.38,33.38,0,0,1,40.52,39a7.08,7.08,0,0,0-6.22-.78,13.31,13.31,0,0,1-4.81.22,14.93,14.93,0,0,1-3-.79C27.73,44.22,29,50.52,30.26,57.09Z"/></g></svg>