<svg id="Layer_1" data-name="Layer 1" xmlns="http://www.w3.org/2000/svg" viewBox="0 0 233.27 300"><title>Sports-icons</title><g id="KhDLtQ"><path d="M232.05,227.3c-.28-.75-.91-1.49-.89-2.22.17-7.87-4.32-13.31-9.34-18.59-4.61-4.86-11-7.61-14.72-13.7-1.61-2.66-5.44-4-8.29-5.86-1.06-.69-2.37-1.05-3.34-1.83-5-4-10.33-7.09-16.8-7.86a2.42,2.42,0,0,1-2.37-2.61c0-5.48-1.85-10.54-3.74-15.57q-4.84-12.88-9.78-25.73a11,11,0,0,0-1.62-2.33,10.88,10.88,0,0,1-1.3-1.69c-1-2.21-2-4.46-2.87-6.72-.77-2-2.44-4.25-2-5.84,1-3.15.1-5.24-1.62-7.62-1-1.35-1.29-3.15-1.95-4.72-.84-2-1.65-4-2.6-6-2.19-4.52-4.56-9-6.67-13.52-1.95-4.21-3.83-8.37-9.26-8.78a16.1,16.1,0,0,0-2.29-11c-5.27-8.68-12.23-15.88-20.06-22.22-4.08-3.31-8.57-6.12-12.53-8.9a21.77,21.77,0,0,0,0-3.8c-.58-3.21-1.39-6.37-2-9.57-.34-1.8-.93-3.14-3.15-2.78.26-4.07-1.09-7-4.82-8.57A3.63,3.63,0,0,1,86.64,8,19.39,19.39,0,0,0,75.74.64C74.08.17,72.05-1,71.24,1.91c0,.18-.55.28-.86.35-3.72.78-7.46,1.5-11.16,2.36-.88.2-2.15.65-2.4,1.3-2.27,6-3.76,12.15-3.12,18.57.21,2,1.57,3.93,2.46,6-1.78.2-3.54.32-5.29.6-9.43,1.55-17.7,6-25.7,10.85C19.61,45.34,14,48.22,7.57,49.45c-4.19.8-5.64,2.62-6.21,6.76C1.09,58.15.78,60.08.53,62-.7,71.58-.22,80.75,6.77,88.35c4,4.37,7.85,8.93,12.22,12.92,2.19,2,5.32,3,3.4,6.82a.58.58,0,0,0,0,.48c1.47,2.87,2.44,6.19,4.54,8.48a83.86,83.86,0,0,0,11.72,10.29c2.33,1.73,5.31,3.45,8.06,3.55A7.51,7.51,0,0,1,53.67,135a5.38,5.38,0,0,1,.77,4.7c-2,7.39-3.63,14.86-5.42,22.29-.81,3.35-1.58,6.72-2.5,10s-2.66,6.77-2.9,10.23c-.3,4.16.44,8.43,1,12.62.52,3.75,1.64,7.43,2.1,11.19.53,4.33.36,8.77,1,13.08.78,5.21,2.1,10.34,3.21,15.49.78,3.58,1.22,7.3,2.55,10.66a4,4,0,0,1-.83,4.76,23.31,23.31,0,0,1-3.22,3c-3.34,2.51-6.79,4.89-10.11,7.42a12.52,12.52,0,0,0-2.82,3c-2.12,3.2-1.6,5.71,1.53,8-.6,1.66-1.23,3.33-1.82,5-1.44,4.1,0,5.91,4.34,5.42,3.64-.41,7.29-.9,10.88-1.62,6-1.2,11.9-2.59,17.85-3.93,3-.68,3.94-2.93,4.09-5.64.07-1.28-.28-2.58-.31-3.87,0-.85-.12-2.14.35-2.47C76.08,262.46,77,260,77,256.88s.61-6.42.77-9.63a60.57,60.57,0,0,0-.11-7,3.25,3.25,0,0,0-.92-2.17c-1.44-1.13-1.15-2.38-.58-3.67,1.23-2.75,2-5.49,1.11-8.53a4.83,4.83,0,0,1,.37-2.34c1.82-6.64,3.26-13.3.79-20.11-.35-1-.69-2-1-2.94s-1.19-2.21-1.06-3.23c.58-4.66,1.42-9.3,2.12-13.68L86.15,182c6.38,9.18,12.91,18.63,19.49,28q24,34.28,48,68.5c3,4.31,6.2,8.54,9.52,12.64a5.88,5.88,0,0,0,7.06,1.86c2.66-1,5.39-1.76,7.47-2.43l0,.06a7,7,0,0,0-.06.93,8.42,8.42,0,1,0,3.8-7v-12a37.2,37.2,0,0,1-3.09,2.54,73.56,73.56,0,0,1-8.76,5.22c-3.82,1.72-7.24.82-9-1.74l-12.25-17.64-24.71-35.55-33-47.44a27.64,27.64,0,0,0,2.83-2.44A23.54,23.54,0,0,0,96,172c1.07-1.77,1.82-3.76,3-5.43,2.84-3.95,6.72-7.39,7.34-12.48.38-3.16,2.61-4.46,4.74-5.25,1.08-.39,3.18,1.41,4.53,2.55a11.94,11.94,0,0,1,2.81,3.67c2.86,5.57,5.61,11.2,8.36,16.83,2.32,4.75,4.51,9.56,6.89,14.28,1.73,3.43,5.39,4.77,10.48,3.66,1.7-.38,2.5-.05,3.28,1.39,3.74,6.83,7.88,13.32,15.52,16.49a10,10,0,0,0,2.47.89c4.5.56,9,1,13.53,1.52,2.5.29,5,.74,7.5.87,6.86.36,13,2.37,18.3,6.92a184.76,184.76,0,0,0,14.69,11.3c3,2.06,6.49,2.6,9.65,0l3.39,1.58.62-.52C232.75,229.31,232.42,228.29,232.05,227.3ZM65.78,116.58c-1.54,2.45-2.69,5.15-5.58,6.57-.94.45-1.49,1.81-2.07,2.85a36.92,36.92,0,0,0-1.49,3.43l-4.32-6.37a29.38,29.38,0,0,0,1.42-4.31,15.47,15.47,0,0,0-1.17-9.25c-.86-1.88,0-4.47-.6-6.54-1.44-4.92-3.36-9.67-3.9-14.87-.18-1.69-1-3.71-3.56-3.65-.36,0-.76-.9-1.11-1.41-.9-1.27-1.79-2.55-2.76-4L45.2,75.8c1.13,3.3,2.59,6.25,3.1,9.34a22.17,22.17,0,0,0,8.58,14.29c.43.34,1.1.75,1.13,1.16.37,5,4,8,7.13,11.28C66.68,113.48,66.89,114.82,65.78,116.58Z"/></g></svg>