<svg id="Layer_1" data-name="Layer 1" xmlns="http://www.w3.org/2000/svg" viewBox="0 0 156.09 300"><title>Sports-icons</title><g id="oFMIyw"><path d="M155.21,99.56c-.53,5-1.23,10-1.55,15.06-.53,8.12-.86,16.25-1.15,24.38-.13,3.84-1.29,5.84-4.89,6.32a120.29,120.29,0,0,1-13,.9,3.48,3.48,0,0,1-3.72-4.34c1.3-4.73,3-9.34,4.59-14a2.14,2.14,0,0,1,.62-1c5.44-4,4.34-9.86,3.95-15.28-.51-7-1.62-14-2.47-21-.49-4.08-1.22-4.57-5.2-3.68-6.11,1.37-12.14.49-18.11-.94-1.61-.39-5.66,1.46-6.22,3.33-2,6.74-4.29,13.46-5.65,20.34-.71,3.57-.15,7.57.65,11.2a27.79,27.79,0,0,1-.59,15.24c-.44,1.3-.16,2.85-.18,4.29s.52,3.21-.1,4.33c-1.15,2.12-.21,3.23,1,4.64,3,3.43,3,3.93.84,7.85a4.28,4.28,0,0,0-.74,1.6c-.3,5.51-4.17,8.61-7.67,12.17-2.59,2.63-4.28,6.12-6.58,9.07a49.15,49.15,0,0,1-4.38,4.27c-1.38,1.38-2.77,2.77-4.05,4.25-2.22,2.55-4.07,5.14-7.23,7.08-5.46,3.34-10.09,8-15.08,12.13-1.62,1.33-1.7,2.52-.66,4.54,3.56,6.94,3.25,14-.42,20.86-.8,1.5-.51,2.47,0,4a33.67,33.67,0,0,1,2.24,10,141.69,141.69,0,0,1-.46,19.66c-.86,8-3.54,15.37-10.93,19.89-4.21,2.57-7,2.59-10.92.54a1.51,1.51,0,0,0-.3.49c-1,5.5-1,5.4-6.51,6.6-2.29.5-4.42,1.73-6.71,2.31-5,1.25-10,2.42-15,3.3a4,4,0,0,1-3.46-1.61c-.41-.88.25-2.85,1.1-3.62a49.43,49.43,0,0,1,8.19-6.25c4-2.29,6-5.88,4.87-10.42a78.57,78.57,0,0,0-3.24-9.91c-3.52-8.72-4.21-17.94-4.92-27.15a7.5,7.5,0,0,1,.8-4c3.64-6.57,4.27-13.84,4-21a92,92,0,0,1,3.74-28.22c.72-2.52,1.68-4.8,1-7.82-.79-3.46-.14-7.33.31-11,.19-1.54,1.54-2.92,2.24-4.43,1.1-2.36,2.1-4.78,3.14-7.18,1.94-4.44,3.91-8.87,5.8-13.33.64-1.53,1-3.17,1.65-4.71a22.6,22.6,0,0,1,2.57-5.43c2.07-2.65,1.85-3.94.53-6.93-2.39-5.43-5.84-6.38-11.37-5-5.81,1.46-11.79.57-17.7-.82-4.13-1-6.44-3.2-7.34-7.19A6.28,6.28,0,0,0,0,112.69v-7.16a13.17,13.17,0,0,0,.72-1.26C4.83,94.7,8.8,85.06,13.1,75.57c1.67-3.67,4.62-6.78,6.06-10.5,2.66-6.87,8-11.37,13.1-16.06,7.43-6.89,17.12-8.93,26.66-11.4a26.68,26.68,0,0,1-1.65-5.22c-.19-1.67-.25-4.28.71-5,1.81-1.29,1.6-2.67,1.63-4.29A53.43,53.43,0,0,0,59.72,16C59,9.76,62.21,6,67.18,3.23,71.09,1,75.4-.75,79.73.32c4,1,7.79,3.3,11.54,5.27,5.09,2.67,6.69,7.57,6.48,12.75-.25,6.3-.89,12.61-4,18.44-1.12,2.08-1.19,4.8-1.35,7.25-.05.79,1,1.91,1.84,2.43a49.28,49.28,0,0,0,5.49,2.74c2.68,1.22,5.29,2.74,8.1,3.49a34.08,34.08,0,0,1,12,5.35,6.76,6.76,0,0,0,3.23,1.32c7.92.83,14.64,4.83,21.65,8.06,4.64,2.13,7,5.9,8.08,10.75.68,3.18,1.58,6.3,2.38,9.45Zm-88.82,0c1.16-2.07,3.44-4.23,3.14-5.93-1.47-8.31-4.65-16-12.63-20.23-4.52-2.41-9.38-2.48-13.35,1.18-6.39,5.87-10.68,13-11.87,21.79-.6,4.44-.54,4.63,3.88,5.41,13,2.28,15.89.54,21.66-7.56,1.06-1.48,1.46-3.43,2.14-5.17.36-.91.42-2.13,1.08-2.68a5.06,5.06,0,0,1,3.14-1c.36,0,1.07,1.58,1,2.38a25,25,0,0,1-1.2,5.15C62.21,96.39,62.91,98.27,66.39,99.55ZM35,120c2.54,6.36,6.42,10.65,13.11,11.12,7,.48,10.72-4.61,14.69-9.75-1.36-1.41-2.4-3.12-3.92-3.89a28.72,28.72,0,0,0-6.64-1.84,6.13,6.13,0,0,0-2.91-.11C44.61,116.94,39.92,118.47,35,120Zm3,112.78c-.79,4-2.21,7.43-2,10.71A82.22,82.22,0,0,1,35,266.31c-.83,4.05-.69,8.3-1,12.46l1,.09c.23-.64.47-1.28.66-1.94a92.37,92.37,0,0,0,3.5-30.32,14.81,14.81,0,0,1,1.14-7C41.75,236.78,40.59,235.25,38.05,232.8ZM30,94.69l-5.21,4.48,4.68,1Z"/></g></svg>