<svg id="Layer_1" data-name="Layer 1" xmlns="http://www.w3.org/2000/svg" viewBox="0 0 197.95 300"><defs><style>.cls-1{fill:#fff;}</style></defs><title>Sports-icons</title><g id="TQRQVJ"><path d="M0,190.17c1.84-2.31,3.46-4.85,6.9-5,3.87-.22,7.23,2,8,5.39.93,4-.72,7.55-4.16,9a7.56,7.56,0,0,1-9.54-2.77c-.39-.56-.83-1.09-1.24-1.64Z"/><path d="M115.64,234.32c-2.81,4.37-6.37,5.48-10.36,5.75-10.24.68-20.5,1.11-30.69,2.16-4.31.44-8.49,2.15-12.71,3.31-3.16.87-6.3,1.78-8.87,2.52-.42,2.28-.72,3.93-1.06,5.77l-3.9-1-1.76,3.38-2-1.46-6,.66-.29-.76,2.14-.18c-1.06-1-1.2-1.19-1.32-1.18-7.66.78-14.2,4.5-20.86,7.94A14.62,14.62,0,0,1,13,262.94c-3,.34-4.65-1.91-3.73-4.77a10.83,10.83,0,0,1,1.68-3.3C15.53,249,19.94,243,26,238.39,28.57,236.45,30,233,32,230.3c2.34-3.14,4.48-6.52,7.28-9.21,3.09-3,4.88-2.29,7.91.72,2.85,2.82,6.2,5.15,9.86,8.12l34.07-10.87c0-3.15.34-7.09-2.92-10.25a4.7,4.7,0,0,1-.87-1.95c-1.68-5.55-3.22-11.15-5.06-16.65a8.86,8.86,0,0,0-2.87-4.05c-5.67-4.34-11.68-8.25-17.2-12.78-2-1.66-3-4.6-4.51-6.93-2.77-4.28-3.12-9.2-3.69-14a60.75,60.75,0,0,1-.69-9.21c.08-2.37.94-4.72,1.42-7.08a17.77,17.77,0,0,0,.34-2.4c.27-3.72.58-7.44.71-11.16a10.42,10.42,0,0,0-.81-3.24c-2.2-7-4.43-13.84-8.28-20.32-3.46-5.82-5.36-12.7-7.14-19.33-.68-2.56.77-5.73,1.4-8.59A8.09,8.09,0,0,1,42.31,68c1.78-2.35,3.72-4.57,5.6-6.84,1-1.22,2.81-2.38,2.9-3.65.33-4.72,3.37-7.12,6.84-9.39,2.56-1.67,2.53-2.55-.07-4.29s-3.36-8.31-1.5-11.16c1.3-2,.83-4-.78-4.16-1-6.05,3.64-9.24,6.64-13.29A.56.56,0,0,1,62.2,15C68.26,13.15,74,10,80.68,10.7c1.8,3.18,6.84,1.89,8.08,6.31,1.17,4.18,1.15,4.78-.39,9.7-1.2,3.83-1.19,8-1.7,11.95a35.82,35.82,0,0,1,15.82,8.69c7.37,6.73,15.84,11,25.87,11.45,3.47.16,7-.74,10.49-1.2,1.54-.21,3.06-.56,4.6-.77,6.89-.91,6.94-.89,8.74-7.69.6-2.29,1.35-4.73,1.15-7-.66-7.86,2.31-14.39,6.66-20.55,6.21-8.79,13.52-16.33,23.78-20.34A15,15,0,0,1,190.11,0c5.41.4,8.24,5.06,6.76,10.62-2,7.53-6.3,13.75-11.61,19.23-3.67,3.8-7.82,7.13-11.73,10.69-1.81,1.64-3.56,3.33-5.9,5.51,7-.84,12.78-5.3,19.33-3l.27,1.13-6,2a47.87,47.87,0,0,1,5.51.42c.61.12,1.07,1,1.6,1.48a5.76,5.76,0,0,1-1.7,1.07c-2.43.48-4.9.8-7.35,1.25-.41.07-.76.52-1.14.79l.08.88h11.37c-1.37,2.64-1.37,2.64-5.71,2.66h-6.11l-.38,1,5.69,4.35-.25.83c-.71,0-1.62.28-2.1,0-2.84-2-5.37-1.15-8.32,0A109.22,109.22,0,0,1,156.77,66c-5.5,1.28-7.8,5.33-10,9.7a32,32,0,0,0-1.46,4.52,8.24,8.24,0,0,1,1.69.2c.79.28,1.55.69,2.32,1-.45.73-.72,1.76-1.37,2.13a24.3,24.3,0,0,0-7.41,6.17c-1.25,1.58-4.37,1.63-6.59,2.5a24.73,24.73,0,0,0-3.42,1.87,36.38,36.38,0,0,1-4.1,2.45c-3,1.27-6.13,2.34-9.22,3.45a16,16,0,0,1-3.28,1c-5.92.78-6,.76-5.26,6.54.88,7,1.9,13.83.58,21-.69,3.78.41,8,1.36,11.94,1.86,7.62,4.31,15.09,6.2,22.7a8.25,8.25,0,0,1-.79,5.58c-1.48,2.57-1,4.65.93,6.17,8.42,6.56,13,15.32,13.14,25.7.12,9.63,2,18.91,3.41,28.31.83,5.52,1.39,11.11,2.73,16.51,1,4,3,7.77,4.65,11.61,1.28,3,2.6,5.95,4.1,8.82.66,1.27,1.41,2.92,3.57,1.91.29-.14,1.67,1,1.59,1.25-1.6,4.47,2,7.06,4.07,9.68,3.31,4.25,7.87,7.5,11.49,11.55a10,10,0,0,1,2.3,6.34c0,1-2.76,2.53-4.45,2.83a42.6,42.6,0,0,1-22-2.15c-4.08-1.47-7.83-3.9-11.65-6.05-2.5-1.4-2.69-3.3-1.68-6,.63-1.71,0-3.92.68-5.57,3.37-7.93-.58-14.36-3.83-21-1-2-1.48-4.24-2.3-6.33C120.5,246.53,118.2,240.79,115.64,234.32ZM193.9,6.5c-.52-3.55-1.62-4.82-5-4.54a20,20,0,0,0-6.8,1.68c-7.93,3.79-13.6,10.15-18.45,17.24-3.47,5.08-7,10.2-8.17,16.44-.82,4.47,1,6.39,5.34,5.59a15.15,15.15,0,0,0,4.88-1.78C176.79,34.5,184.89,25,191.1,13.89,192.37,11.61,193,9,193.9,6.5ZM103.57,74.43c.89,4.9,1.77,9.8,2.7,14.92,1.76-.27,3.07-.43,4.37-.68a71.11,71.11,0,0,1,7.26-1.44c5.59-.47,10-3.21,12.14-8.06a9.61,9.61,0,0,1,6.26-5.65,11.43,11.43,0,0,0,1.16-.42,7.3,7.3,0,0,0,1-.63c-6.45,1.66-12.71,2.2-18.8-.85-3.6-1.81-6.55-1.29-9.4,1.65C108.63,74.93,106.52,76.69,103.57,74.43Zm53-27.64c-.48,2.22-.93,4.29-1.39,6.37l.71.24,5.43-6.61Z"/><path class="cls-1" d="M103.57,74.43c3,2.26,5.06.5,6.66-1.16,2.85-2.94,5.8-3.46,9.4-1.65,6.09,3,12.35,2.51,18.8.85a7.3,7.3,0,0,1-1,.63,11.43,11.43,0,0,1-1.16.42A9.61,9.61,0,0,0,130,79.17c-2.16,4.85-6.55,7.59-12.14,8.06a71.11,71.11,0,0,0-7.26,1.44c-1.3.25-2.61.41-4.37.68C105.34,84.23,104.46,79.33,103.57,74.43Z"/></g></svg>