<svg id="Layer_1" data-name="Layer 1" xmlns="http://www.w3.org/2000/svg" viewBox="0 0 241.28 300"><defs><style>.cls-1{fill:#070708;}</style></defs><title>Sports-icons</title><path class="cls-1" d="M110,83S80.27,57.23,73.82,48.44,66,37.08,51.74,27.84s-24.17-12.42-28.83-14S9.23,9.75,6.89,9.16c-2.3,2.05-1.2,4.25-1.09,5.07s-1.27,1.51-.89,2.69,2.46.56,3.75.51C29.3,16.11,62.11,37.06,69.46,48,76.41,58.32,104.8,78.23,110,83Z"/><path class="cls-1" d="M152,164.5a11.57,11.57,0,0,1,1.28-2.3,15.37,15.37,0,0,1,7.35-5.73,20.85,20.85,0,0,0-9-9.46,17,17,0,0,0-4.76-1.75c-9.91-.37-6.8,3.77-6.15,4.37s.2,1.91.2,1.91a10.46,10.46,0,0,1,.89,1.41c.23.52,0,1.32.23,1.56a1.64,1.64,0,0,1-1.19,1.87c-1,.12-.58,2.2,1.62,4.17l.77,4.71v0a13.56,13.56,0,0,0,2.16,4.25c1.77-.27,5.37-1.2,6.37-4.39A6.21,6.21,0,0,1,152,164.5Z"/><path class="cls-1" d="M174.16,202.81c-3.62-6.43-10.65-29.48-10.65-29.48h0c0,.63-.07,1.27-.13,1.93-.57,8.41,9,26,11.08,30.34s.6,3.39,0,5.05,2,12.43,1.25,14.13,1.87,1.19,2.24.8,1.23-2.91,1.7-2.87c0,0,0,0,0,0A48.36,48.36,0,0,0,174.16,202.81Z"/><path class="cls-1" d="M110,83S80.27,57.23,73.82,48.44,66,37.08,51.74,27.84s-24.17-12.42-28.83-14S9.23,9.75,6.89,9.16C2.14,8.15.48,6.91,1.14,5.88s.92-.47,1.27-.13c0,0-.38-2.06.89-1.69a1.22,1.22,0,0,1,1.45-.52s.82-1,1.37-1.07c0,0,1.43-1.85,3.27-1s3.58.27,4.83.68,9.06,1.12,11.5-.34,7.73-1.73,9,.68S35.3,7.64,38.59,9s8.73,4.8,18,7.7S74.1,24.49,79.09,32.42s32.07,22.73,36.79,24l1.29.33a34.06,34.06,0,0,0,7.11,4.75c4.27,1.86,12.1,7.3,12.41,24.88s-11.23,12.8-16.32,6.47c-4.59-5.7-5.12-8-10.53-10Z"/><path class="cls-1" d="M161.83,113.29c-.61-1.05-1.21-2-1.8-2.91l-.82.42c-18.28,9.29-17.85-16.55-17.39-22.4a35,35,0,0,0,0-4.91c-3.1-20.7-18.58-25.22-24.63-26.76a34.06,34.06,0,0,0,7.11,4.75c4.27,1.86,12.1,7.3,12.41,24.88s-11.23,12.8-16.32,6.47c-4.59-5.7-5-7.91-10.4-9.86a6.59,6.59,0,0,1,.66.67c2.44,3.06,1.35,8.13,11.1,16.07s9,16.23,10.75,25.12,5.9,15.14,14.38,20.43a17,17,0,0,1,4.76,1.75C151.11,127.93,158,117.52,161.83,113.29Z"/><path class="cls-1" d="M183.76,219.52c-1.08-2-2.67-11.34-2.72-13.63.32-19.47-2.3-22.44-4-24.83s-3.84-12-2.47-19.8.32-7.32-2.06-19c-2.83-13.18-6.94-22.55-10.7-29-3.79,4.23-10.72,14.64-10.21,33.72,5.21,2.76,12.7,9.65,11.89,26.32h0s7,23,10.65,29.48a48.36,48.36,0,0,1,5.56,19.92c.47.17,1.28,5.64,1.27,6.25s1,.32,1.25,1.48,1.6-.36,1.6-.36.08-1.7,1.52-1.79S184.84,221.53,183.76,219.52Z"/><path class="cls-1" d="M159.21,110.8l.82-.42a53.63,53.63,0,0,0-7.35-9.08C150.48,99,143,91.8,141.8,83.49h0a35,35,0,0,1,0,4.91C141.36,94.25,140.93,120.09,159.21,110.8Z"/><path class="cls-1" d="M144.83,165.87a2.25,2.25,0,0,0,2-2.12c.62.09,2.68.4,5.19.75a11.57,11.57,0,0,1,1.28-2.3,39.8,39.8,0,0,1-6.78-.81c-1.22-3.41-4-.84-4-.84l.77,4.71v0C143.68,165.83,144.2,165.75,144.83,165.87Z"/><path class="cls-1" d="M163.51,173.33a44.58,44.58,0,0,0-.24-7.55c-.14-1.11-.32-2.16-.53-3.16a27.49,27.49,0,0,0-2.11-6.15,15.37,15.37,0,0,0-7.35,5.73,11.57,11.57,0,0,0-1.28,2.3,6.21,6.21,0,0,0-.23.64c-1,3.19-4.6,4.12-6.37,4.39,3.22,4.15,8.62,4.91,16.38,5.6l1.6.13C163.44,174.6,163.48,174,163.51,173.33Z"/><g id="jEY78c"><path d="M224.81,299a28.91,28.91,0,0,1-15-4.24,13.42,13.42,0,0,0-13.27,0A27.58,27.58,0,0,1,180.76,299a25.56,25.56,0,0,1-13.06-3.59A13.92,13.92,0,0,0,154.94,294c-1.51.6-2.74,1.51-4.18,2.2-8.43,4-19.09,3.68-26.63-1.1-4-2.56-10.46-2.65-14.29-.16a26.36,26.36,0,0,1-15.07,4,25.86,25.86,0,0,1-14.09-4c-2.09-1.4-2.15-3.44-.21-4.89a7.14,7.14,0,0,1,7.21-.34,15.92,15.92,0,0,0,6.53,2.11,13.67,13.67,0,0,0,8.4-2.09,26.79,26.79,0,0,1,16-3.72,25.59,25.59,0,0,1,12.51,3.73,13.64,13.64,0,0,0,12.65,1.05,15.88,15.88,0,0,0,2-1,28.5,28.5,0,0,1,28.86.15,14.19,14.19,0,0,0,14.54-.22c6.81-4.36,17.58-5,25.39-1.5,1.44.63,2.73,1.41,4.07,2.13a13.52,13.52,0,0,0,12.78-.13c3.12-1.77,6.57-1.68,8.61.21,1.51,1.41,1.42,3.11-.37,4.39a23.82,23.82,0,0,1-11.33,3.95C227.11,298.89,226,298.94,224.81,299Z"/><path d="M225,283.88c-5.23-.12-10-1-13.66-3.4a14.59,14.59,0,0,0-16-.18c-7.7,4.82-20.18,4.76-28.25-.34a13.57,13.57,0,0,0-14.24,0,28.58,28.58,0,0,1-28.36.31,14.6,14.6,0,0,0-6.12-2.21,14.35,14.35,0,0,0-9.36,2.24c-7.87,4.8-20.19,4.74-28-.19-2.47-1.55-2.64-3.69-.52-5.2s5.35-1.4,7.8,0a14,14,0,0,0,12.71.59c1.39-.69,2.62-1.51,4-2.17,7.67-3.66,18.58-3.18,25.55,1.08,4.24,2.59,8.85,3.09,13,1.34,1.28-.54,2.35-1.28,3.56-1.88,8.63-4.33,19.41-4,27.29.88a13.67,13.67,0,0,0,12.4,1c1.64-.66,3-1.64,4.55-2.39,7.54-3.6,18.15-3.24,25.19.81a15.75,15.75,0,0,0,6.42,2.48,13.63,13.63,0,0,0,8.69-1.72c2.81-1.65,6.61-1.37,8.44.59,1.31,1.4,1.07,3.11-.71,4.31C235.44,282.49,230.51,283.73,225,283.88Z"/></g></svg>