<svg id="Layer_1" data-name="Layer 1" xmlns="http://www.w3.org/2000/svg" viewBox="0 0 266.95 300"><title>Sports-icons</title><g id="tWq27O"><path d="M162.29,196.49c-.23,3.71-.41,7-.63,10.34-.74,11.25-1.74,22.48-4,33.54a36.68,36.68,0,0,1-4.52,12.46c-2.4,3.78-5.59,5.43-10.25,4.87-12.07-1.45-23.52-5.06-34.82-9.32-8.72-3.29-17.36-7-26.65-8.34a139,139,0,0,0-14.59-.89,3.24,3.24,0,0,0-3.55,2.23c-1.91,6.47-7,9.5-12.77,11.67a9.16,9.16,0,0,0-4.79,4.07,73.16,73.16,0,0,1-4.88,7.35,5.8,5.8,0,0,1-7.43,1.93,2.56,2.56,0,0,1-1.75-2.49,39.87,39.87,0,0,1,5.17-23.07c3.64-6.24,6.16-12.92,8.54-19.68a69.86,69.86,0,0,1,2.75-6.79c2.07-4.36,3.11-5.09,9-4.47,4.32.46,7.58,2.94,10.38,6.12a6.4,6.4,0,0,0,2.23,1.63,88.67,88.67,0,0,0,26.43,6.45c7.58.72,15.17,1.22,22.73,2A74.77,74.77,0,0,1,127,228c-.54-4.38-.82-8.76-1.68-13-.66-3.23-2.07-6.31-3.1-9.47-1.54-4.74-3-9.49-4.57-14.24a5.59,5.59,0,0,0-.82-1.52c-1.26-1.72-2.87-3.27-3.79-5.16-1.72-3.53-3.47-7-6.58-9.49-4.77-3.89-6.16-9.4-7-15A40.43,40.43,0,0,1,106,131.43a14.29,14.29,0,0,1,1.14-1.43,19,19,0,0,0,3-6.45c.51-4.88,3.12-8.29,7.23-10.76a4.48,4.48,0,0,0,1.78-2.16A52,52,0,0,1,127.57,95a1.75,1.75,0,0,0,.09-2.59c-2.14-2.76-4.15-5.63-6.26-8.41a4,4,0,0,0-1.47-1c-3.54-1.66-7.37-2-11.19-2.27a16,16,0,0,1-6.71-1.6c-6.8-3.54-14.25-4.8-21.71-6.07-8.92-1.52-17.78-3.36-26.71-4.82-4.87-.8-9.81-1.23-14.73-1.55s-10.08-.31-15.12-.47A2.49,2.49,0,0,1,22.65,66c-3.88-2.16-7.86-4.16-11.57-6.58a20.15,20.15,0,0,1-4.73-4.84A5,5,0,0,0,2.4,52.2a8.19,8.19,0,0,1-2.4-1c.5-.93.79-2.38,1.55-2.69a43.38,43.38,0,0,1,7.27-2.15c7.72-1.7,14.16,1.8,20.33,5.55a18,18,0,0,0,9.54,2.69c9.28.13,18.56.23,27.83.49a82.3,82.3,0,0,1,22.42,3.79,35.84,35.84,0,0,0,9.52,1.36c6.49.19,13,.16,19.49,0,2.83-.08,5.64-.82,8.48-1.15a17.39,17.39,0,0,1,4.44-.09c1.76.25,3.41.57,5.17-.18a5.17,5.17,0,0,1,2.61.08c2,.32,3.92.66,5.83,1.15a5.25,5.25,0,0,1,2.74,1.34,2.58,2.58,0,0,0,3.64.68,4.94,4.94,0,0,1,4.92-.13,2.2,2.2,0,0,0,1.52,0c2.78-.89,5.53-1.85,8.27-2.78.44-2.23.92-4.75,1.43-7.26.05-.26.15-.63.35-.74,1.82-1,1.65-2.91,1.54-4.39-.57-8.23,9.44-17.48,19.41-16.39,10.29,1.13,17.7,9.69,16.74,20a24.86,24.86,0,0,1-1.5,5.09c-.31.93-.4,1.6.62,2.24A2.56,2.56,0,0,1,205,61a59.46,59.46,0,0,1-3.5,7c-.61,1-.85,1.85,0,2.9,1.71-.89,3.23-.43,4.78.6a5.64,5.64,0,0,0,2.56.58c1.93.18,3.95,0,5.79.48s3.37,2.11,5.16,2.35a12.26,12.26,0,0,1,5.46,1.65,13.35,13.35,0,0,1,2.31,1.64c1.55,1.63,3.36,1.93,5.54,1.89,3.36-.07,6.74.29,10.33.49-.14-.63-.26-1.29-.45-1.94-.54-1.91-1.25-3.79-1.62-5.74-1.07-5.53-3.87-10.15-7.48-14.3-5.58-6.4-7.75-13.67-6-22a3.1,3.1,0,0,0-1.46-3.5c-5.1-3.7-8.06-9-10-14.8a52.27,52.27,0,0,1-2.21-10.38c-.43-3.38,2.21-6.73,5.47-7.66,2.1-.6,4,.23,5.74,1.12,5,2.52,8.18,6.8,10.53,11.67A68.54,68.54,0,0,1,239,21.57c.3.91.62,1.5,1.64,1.51a1.16,1.16,0,0,1,.64.17c.61.42,1.64.87,1.66,1.34a2.88,2.88,0,0,1-1.18,2c-.74.58-1.43.91-1.58,2.07a3.09,3.09,0,0,0,1.37,3.27c.59.42,1.08,1,1.7,1.34,3.86,2.2,4.55,5.54,3.62,9.57a74.42,74.42,0,0,0-1.35,7.54,4.84,4.84,0,0,0,.63,2.91c5.18,8.35,10.56,16.58,15.64,25a36.15,36.15,0,0,1,4.68,12.58c.38,2.14.14,4.09-1.59,5.44a26.81,26.81,0,0,1-6.33,4.13c-1.74.67-3.92.21-5.9.24-3.89.07-7.78,0-11.66.24a36.86,36.86,0,0,1-11.56-1,4.86,4.86,0,0,0-1.62-.29c-3.92.38-7.83.83-11.74,1.25-3.49.37-6.35,2.27-9.3,3.9A82.32,82.32,0,0,0,189.46,117c-1.74,1.66-3,3.85-4.54,5.68a32.27,32.27,0,0,1-4.94,5.1c-3,2.24-5.15,5.19-7.3,8.15a3.91,3.91,0,0,0-.37,1.91c-.25,3-.95,4-3.8,4.68a3.73,3.73,0,0,0-2.63,2.44,25.2,25.2,0,0,1-2.72,3.86c-.3.43-.82.88-.81,1.31.08,3,.29,5.91,2.65,8.32,1.26,1.29,1.82,3.25,2.8,4.84a5,5,0,0,0,1.76,1.94A65.67,65.67,0,0,1,184,174.09c6.14,5.26,8.81,12,9.37,19.92.46,6.41.39,12.9,2.32,19.14a8,8,0,0,0,.3.95c4.15,9,6,18.79,9.43,28.06,1.85,5.1,4.16,10,6.32,15,.36.83.78,1.73,2,1.63.33,0,.75.55,1.06.91.91,1,1.71,2.19,2.68,3.18,2.59,2.68,5.52,4.58,9.54,4a19.61,19.61,0,0,1,3.83,0c4.74.27,9.35.1,13.83-1.93a14.77,14.77,0,0,1,6-.89c2.47,0,3.43,1.86,2.46,4.14a28.88,28.88,0,0,1-9.67,12.1c-7.82,5.78-15.74,11.41-23.69,17a32.66,32.66,0,0,1-5.1,2.41A2.16,2.16,0,0,1,212,299c-4.64-5-7-11-8-17.61a11.47,11.47,0,0,1-.14-1.16,39.49,39.49,0,0,0-1.82-7.95c-1.66-6.06-5.13-11-8.24-16.24-3.36-5.63-6.89-11.16-10.52-16.61-5.41-8.13-8.13-17.21-9.9-26.67-.44-2.34-1-4.69-1.18-7.06-.37-3.74-2.5-6.07-5.68-7.62C165.24,197.52,163.91,197.11,162.29,196.49Z"/></g></svg>