<svg id="Layer_1" data-name="Layer 1" xmlns="http://www.w3.org/2000/svg" viewBox="0 0 169.42 300"><title>Sports-icons</title><g id="nqOBsq"><path d="M86.93,112.26a59.56,59.56,0,0,0-5.39,3.56,6.21,6.21,0,0,1-7.19.81c-2.69-1.28-5.21-2.69-8,.4-1.41,1.57-3.79,1.33-5.47-.48-3.44-3.69-7.11-7.21-10.21-11.17-3.39-4.33-7.76-6.2-13.18-4.66l-.26,4.81H30.89l.4-3.89c-4.91-3.11-3.38-13.34,3-15.68-2.77-1.62-5.53-3-5.8-6.67-.25-3.37.41-6.49,2.91-8.58,1-.85,3.35-.14,5.34-.14a77.72,77.72,0,0,0-5-25.71c-2.6-6.92-4.51-13.94-4-21.4.4-6.41,1.66-12.62,6-17.72A15.41,15.41,0,0,1,55.92,3.87c9.61,8.11,10.8,18.44,7.89,30-2.17,8.58-7.69,15-12.85,21.77-3.4,4.49-6,9.62-9,14.72,3.24,1.6,3.57,3.63,2.59,6.2A5.59,5.59,0,0,0,45.92,83c4,3.83,7.54,8.17,11.94,11.39,2.57,1.88,6.42,2.06,9.73,2.8.41.09,1.16-1,1.63-1.63,1.65-2.25,3.29-4.51,4.86-6.82,1.9-2.82,3.72-5.7,5.58-8.55l8.49-13L82,61.94c-2.58.59-4.79,1-6.89,1.65-.77.25-1.29,1.25-1.89,1.87l-1-2.22-8.64-1.11v-.41l3.86-.38-2.18-.82,4.83.28c-1.33-1.89-5,.15-4.22-3.88l-6.27.61-.15-.76,5.4-1.12c-3.28-.3-2.43-3.14-3.18-5.08l1.18-.09V43.71l3.29-.44.57-3.16L72.89,48l.44-.47c-1-4.56-1.9-9.12-2.91-13.66-1-4.34.5-7.9,3.61-10.76,6.19-5.71,13.48-8.23,21.94-7,5.66.84,11.52,6.3,12.34,11.93.69,4.8.94,9.67,2.07,14.76.74-2.14,1.48-4.27,2.11-6.07l.5,1.9,2-5.57L117.61,37c.16-1.27.29-2.24.41-3.22,1.59,2.84,1.57,5.66-.33,9.8l3.91-2.38-.67,4.21,2.46-.71-2.63,4.74,3.06,4.74,1.46-1.35-3-.33,3.82,4-5.65-2.2L121,56l-6.22-.82c0,4.56,2.45,7,5.68,9.8,9.5,8.19,16.46,18.17,17.5,31.28.23,2.89.57,5.79.62,8.69.11,6.64,3.29,12.15,6.41,17.67.48.84,1.78,1.17,2.52,1.93,1.08,1.12,2.66,2.3,2.86,3.64.6,3.92,3.23,6.45,5.43,9.32,1.38,1.79,2.85,3.53,4.08,5.42s3.07,3.71,1.3,6.41c-.39.6.48,2,.66,3a49.21,49.21,0,0,1-.59,21.16,16.16,16.16,0,0,1-1.06,2.69c-4.06,8.87-8.2,17.71-12.2,26.62-2.15,4.8-3.64,5.71-8.75,4.67a9.25,9.25,0,0,1-3.07-.95c-3.95-2.43-6.47-.8-9.57,2.12-5.23,4.93-11.18,9.09-16.82,13.58-.75.6-1.43,1.26-2.48,2.19,1.5.37,2.6.72,3.73.89,10.2,1.63,16.87,8.32,22.49,16.15a79.8,79.8,0,0,0,18.76,18.15,34.46,34.46,0,0,0,9.4,5.09c3.74,1.18,4.75,4.27,6,7,3.1,6.52,1.76,6-3.29,9.86a56.08,56.08,0,0,0-11,10.69c-5.83,7.9-17,8.94-24.31,6.86-1.11-.31-2.3-2.18-2.47-3.46s.68-3.22,1.66-3.69c4.52-2.18,7.15-6.08,9.45-10.11A81.6,81.6,0,0,0,142.91,270c.22-.58-.78-2-1.56-2.49-3.71-2.14-7.49-4.17-11.33-6-5-2.44-10.32-4.37-15.18-7.09-9.1-5.08-18-10.52-26.93-15.94a24.28,24.28,0,0,1-4.6-4.07c-4.07-4.22-4.84-8.29-2.18-13.54,4-7.85,8.19-15.57,12.24-23.23a17.05,17.05,0,0,0-1.63.63c-6,2.9-12.09,5.62-17.94,8.78-5.37,2.89-9,7.48-8.45,13.8C66.53,233.05,61,243,55.7,253.33c-3.48,6.82-5.89,14.22-8.31,21.53-.85,2.55-.17,5.59-.38,8.39-.3,3.89-.69,7.77-1.25,11.63a2.6,2.6,0,0,1-1.95,1.54A13,13,0,0,1,38.4,296c-6.26-2.58-12.86-3.21-19.47-4.12a26.45,26.45,0,0,1-16.36-8.32c-2.79-3.05-2-5.42,2.05-6.27a3.88,3.88,0,0,1,2.22,0c6,2.78,11.46-.12,17-1.54a46.49,46.49,0,0,0,8-2.83c1.36-.63,3.12-1.84,3.42-3.1a138.54,138.54,0,0,0,3.29-17.68c1.19-11.88,1.7-23.8,6.1-35.17,1.49-3.84,1.51-8.22,2.46-12.29a20.74,20.74,0,0,1,7.23-11.52c3.51-3,6.18-6.89,9.44-10.18,5-5.05,10.14-10,15.42-14.82,2.21-2,4.36-3.52,3.78-7.13-.15-.92,2.07-2.74,3.53-3.31,6.66-2.62,13.5-4.81,20.16-7.44,2.83-1.12,2.72-4,3-7.14.36-3.79-2.19-5.67-3.16-8.47s-1.23-5.44-2.86-8c-2.32-3.61-5.39-5.81-9.21-7.69C91.71,117.61,89.63,114.74,86.93,112.26ZM29.52,26.61a29.75,29.75,0,0,0,4.05,17C37,49.78,47.3,54.94,54.3,47.93a29.93,29.93,0,0,0,6.06-10C64.29,28.08,65.45,18,58.6,8.86c-6.68-9-17.73-9.53-24.41-.68C30.23,13.43,29.58,19.54,29.52,26.61Zm6.06,23,4.36,18c2.93-5.22,5.38-9.61,7.6-13.57ZM115.64,62a8.62,8.62,0,0,0-6.22-6c-.73-.22-1.73.42-2.61.66l1.36,1.17Z"/></g></svg>