<?xml version="1.0" encoding="utf-8"?>
<!-- Generator: Adobe Illustrator 24.0.1, SVG Export Plug-In . SVG Version: 6.00 Build 0)  -->
<svg version="1.1" id="Layer_1" xmlns="http://www.w3.org/2000/svg" xmlns:xlink="http://www.w3.org/1999/xlink" x="0px" y="0px"
	 viewBox="0 0 283.46 283.46" style="enable-background:new 0 0 283.46 283.46;" xml:space="preserve">
<style type="text/css">
	.st0{fill:none;stroke:#FFFFFF;stroke-width:5;stroke-miterlimit:10;}
	.st1{fill:#FFFFFF;}
</style>
<circle class="st0" cx="141.82" cy="141.68" r="139.07"/>
<g id="CKEUln_1_">
	<g>
		<path class="st1" d="M141.18,152.97c0.45,2.18,0.98,4.35,1.33,6.55c0.44,2.79,1.7,5.21,3.14,7.56c2.14,3.5,3.3,7.36,4.29,11.3
			c0.3,1.21,0.81,2.39,0.99,3.62c0.47,3.2-1.84,5.38-5.49,6.19c-3.5,0.77-5.84-1.08-8.52-2.6c-3.18-1.8-4.79-4.95-7.11-7.49
			c-1.28-1.4-2.72-2.67-4.28-3.95c0.14,3.31-2.16,5.41-3.53,7.92c-0.59,1.09-1.6,1.83-2.86,1.71c-1.25-0.12-2.08-0.97-2.53-2.17
			c-0.91-2.43-0.69-4.93-0.59-7.44c0.12-3.09,0.16-6.18,0.23-9.28c0.01-0.59,0.05-1.18-0.01-1.76c-0.22-2.16,0.42-3.83,2.5-4.82
			c0.63-0.3,1.15-0.82,1.72-1.24c-1.98-2.73-2.67-5.92-3.47-9.06c-1.41-5.54-2.67-11.11-4.02-16.66c-0.81-3.32-2.1-6.58-2.39-9.94
			c-0.31-3.62,0.1-7.34,0.58-10.97c0.8-6.07,1.1-12.14,1.09-18.58c-1.98,2.5-3.79,4.76-5.59,7.03c-0.75,0.95-1.48,1.91-2.27,2.83
			c-0.65,0.76-1.03,1.53-0.97,2.59c0.37,6.09,0.45,12.21,1.09,18.27c0.51,4.75,1.72,9.43,2.55,14.15c0.35,1.99,0.36,4-0.61,5.88
			c-0.6,1.16-1.53,1.7-2.86,1.58c-3.09-0.29-5.15-3.06-4.49-6.07c0.41-1.87,0.73-3.78,1.27-5.61c0.64-2.19-0.11-4.22-0.5-6.28
			c-0.9-4.67-1.91-9.32-2.85-13.98c-0.09-0.45-0.1-0.91-0.1-1.37c-0.01-1.93,0.12-3.86-0.03-5.78c-0.32-4.05,0.54-7.8,2.11-11.54
			c1.92-4.59,3.69-9.26,6.74-13.23c2.87-3.75,6.12-7.18,10.31-9.56c2.03-1.15,4.03-2.39,5.99-3.65c0.32-0.2,0.61-0.78,0.57-1.14
			c-0.44-3.69-1.05-7.36-1.42-11.06c-0.17-1.68-0.09-3.45,0.24-5.1c0.65-3.27,3.12-5.44,6.53-5.86c2.38-0.3,4.74,0.04,6.97,0.96
			c3.76,1.56,5.15,4.71,5.43,8.46c0.21,2.83,0.15,5.68,0.3,8.51c0.03,0.64,0.36,1.31,0.71,1.87c1.65,2.62,4.39,3.64,7.14,4.49
			c2.58,0.79,4.55,2.23,6.2,4.36c1.79,2.31,3.73,4.52,5.78,6.61c1.8,1.83,2.37,4.19,3.23,6.42c2.19,5.68,4.34,11.38,6.34,17.13
			c1.08,3.1,1.81,6.33,2.7,9.5c0.15,0.52,0.31,1.04,0.49,1.64c1.66-0.08,2.31,1.07,2.75,2.37c0.8,2.37,1.39,4.75,0.03,7.14
			c-0.73,1.29-1.84,1.92-3.25,1.42c-1.76-0.62-3.43-1.49-5.12-2.29c-0.19-0.09-0.35-0.44-0.38-0.68c-0.36-3.66-0.54-7.34-1.09-10.97
			c-0.24-1.58-1.03-3.17-1.93-4.52c-3.29-4.93-6.73-9.77-10.14-14.63c-0.25-0.36-0.64-0.66-1.03-0.88c-1.13-0.62-2.3-1.18-3.69-1.89
			c-0.38,1.99-0.83,3.84-1.08,5.71c-0.88,6.6-1.29,13.23-1.11,19.9c0.08,2.78,0.33,5.49,1.82,7.93c0.52,0.84,1.17,1.6,1.68,2.45
			c0.6,1,1.32,1.99,1.63,3.08c1.48,5.2,5.68,9.92,8.42,14.53c3.37,5.68,5.15,11.27,8.24,17.1c1.1,2.08,1.46,4.58,2.01,6.92
			c0.33,1.42,0.32,2.91,0.56,4.35c0.58,3.5-0.34,6.89-0.67,10.33c-0.42,4.44-0.62,8.91-0.84,13.37c-0.33,6.69-0.6,13.38-0.89,20.06
			c-0.01,0.21-0.11,0.47-0.02,0.62c1.21,1.98,1.81,4.58,4.47,5.22c3.19,0.77,5.41,2.66,7.02,5.42c0.6,1.02,0.43,1.51-0.75,1.79
			c-0.68,0.16-1.41,0.32-2.1,0.27c-3.53-0.28-7.13-0.31-10.58-1.02c-5.39-1.11-7.87-4.26-7.87-9.75c0-3.88,0.58-7.75,0.73-11.64
			c0.16-4.18,0.31-8.38,0.07-12.55c-0.14-2.38-0.98-4.73-1.64-7.06c-0.9-3.16-1.54-6.33-1.25-9.63c0.16-1.77-0.31-3.29-1.2-4.85
			c-1.39-2.42-3.05-4.87-4.39-7.53c-1.15-2.86-3.35-4.23-5.24-6.5c-1.51-1.81-2.68-3.66-4.74-4.7
			C141.5,152.88,141.34,152.93,141.18,152.97z"/>
		<path class="st1" d="M123.21,227.96c0.04-8.78,7.14-15.78,15.94-15.71c8.74,0.07,15.64,7.19,15.58,16.09
			c-0.06,8.54-7.22,15.6-15.76,15.52C130.1,243.78,123.16,236.78,123.21,227.96z"/>
	</g>
</g>
</svg>
