<?xml version="1.0" encoding="utf-8"?>
<!-- Generator: Adobe Illustrator 24.0.1, SVG Export Plug-In . SVG Version: 6.00 Build 0)  -->
<svg version="1.1" id="_1" xmlns="http://www.w3.org/2000/svg" xmlns:xlink="http://www.w3.org/1999/xlink" x="0px" y="0px"
	 viewBox="0 0 54.39 33.58" style="enable-background:new 0 0 54.39 33.58;" xml:space="preserve">
<style type="text/css">
	.st0{fill:#C23233;}
</style>
<g>
	<path class="st0" d="M27.77,22.4H3.23c-0.49,0-0.88-0.39-0.88-0.88c0-7.25,5.9-13.15,13.15-13.15s13.15,5.9,13.15,13.15
		C28.65,22,28.26,22.4,27.77,22.4z M4.14,20.64h22.72c-0.45-5.87-5.37-10.51-11.36-10.51S4.59,14.76,4.14,20.64z"/>
	<path class="st0" d="M20.55,33.54H10.45c-4.47,0-8.1-3.63-8.1-8.1c0-0.49,0.39-0.88,0.88-0.88h13.31c0.49,0,0.88,0.39,0.88,0.88
		c0,0.49-0.39,0.88-0.88,0.88H4.17c0.43,3.08,3.08,5.46,6.28,5.46h10.11c3.2,0,5.85-2.38,6.28-5.46h-2.18
		c-0.49,0-0.88-0.39-0.88-0.88c0-0.49,0.39-0.88,0.88-0.88h3.12c0.49,0,0.88,0.39,0.88,0.88C28.65,29.91,25.02,33.54,20.55,33.54z"
		/>
	<path class="st0" d="M15.52,26.33c-0.49,0-0.88-0.39-0.88-0.88c0-0.49,0.39-0.88,0.88-0.88c0.49,0,0.89,0.39,0.89,0.88
		C16.39,25.93,16,26.33,15.52,26.33z"/>
	<path class="st0" d="M28.16,26.33H2.84C1.28,26.33,0,25.05,0,23.48c0-1.57,1.28-2.84,2.84-2.84h25.31c1.57,0,2.84,1.28,2.84,2.84
		C31,25.05,29.73,26.33,28.16,26.33z M2.84,22.4c-0.6,0-1.09,0.49-1.09,1.09s0.49,1.09,1.09,1.09h25.31c0.6,0,1.09-0.49,1.09-1.09
		s-0.49-1.09-1.09-1.09H2.84z"/>
	<path class="st0" d="M15.5,16.26c-0.49,0-0.88-0.39-0.88-0.88v-1.54c0-0.49,0.39-0.88,0.88-0.88c0.49,0,0.88,0.39,0.88,0.88v1.54
		C16.38,15.87,15.99,16.26,15.5,16.26z"/>
	<path class="st0" d="M9.92,17.79c-0.49,0-0.88-0.39-0.88-0.88v-1.53c0-0.49,0.39-0.88,0.88-0.88c0.49,0,0.88,0.39,0.88,0.88v1.53
		C10.8,17.4,10.41,17.79,9.92,17.79z"/>
	<path class="st0" d="M6.35,20.1c-0.49,0-0.88-0.39-0.88-0.88v-1.54c0-0.49,0.39-0.88,0.88-0.88c0.49,0,0.88,0.39,0.88,0.88v1.54
		C7.23,19.71,6.84,20.1,6.35,20.1z"/>
	<path class="st0" d="M12.93,20.1c-0.49,0-0.88-0.39-0.88-0.88v-1.54c0-0.49,0.39-0.88,0.88-0.88c0.49,0,0.88,0.39,0.88,0.88v1.54
		C13.81,19.71,13.42,20.1,12.93,20.1z"/>
	<path class="st0" d="M21.08,17.79c-0.49,0-0.88-0.39-0.88-0.88v-1.53c0-0.49,0.39-0.88,0.88-0.88c0.49,0,0.88,0.39,0.88,0.88v1.53
		C21.96,17.4,21.57,17.79,21.08,17.79z"/>
	<path class="st0" d="M24.65,20.1c-0.49,0-0.88-0.39-0.88-0.88v-1.54c0-0.49,0.39-0.88,0.88-0.88c0.49,0,0.88,0.39,0.88,0.88v1.54
		C25.53,19.71,25.13,20.1,24.65,20.1z"/>
	<path class="st0" d="M18.07,20.1c-0.49,0-0.88-0.39-0.88-0.88v-1.54c0-0.49,0.39-0.88,0.88-0.88c0.49,0,0.88,0.39,0.88,0.88v1.54
		C18.95,19.71,18.55,20.1,18.07,20.1z"/>
	<path class="st0" d="M53.51,33.58H0.88C0.39,33.58,0,33.19,0,32.7s0.39-0.88,0.88-0.88h52.63c0.49,0,0.88,0.39,0.88,0.88
		S53.99,33.58,53.51,33.58z"/>
	<path class="st0" d="M16.03,29.93H4.25c-0.49,0-0.88-0.39-0.88-0.88c0-0.49,0.39-0.88,0.88-0.88h11.77c0.49,0,0.88,0.39,0.88,0.88
		C16.91,29.54,16.51,29.93,16.03,29.93z"/>
	<path class="st0" d="M46.64,33.54h-7.88c-1.62,0-2.99-1.16-3.26-2.76l-3.52-29.8c-0.03-0.25,0.05-0.5,0.22-0.69
		C32.36,0.11,32.6,0,32.85,0h19.69c0.25,0,0.49,0.11,0.66,0.29c0.17,0.19,0.25,0.44,0.22,0.69L49.9,30.74
		C49.63,32.38,48.26,33.54,46.64,33.54z M33.84,1.76l3.4,28.78c0.12,0.71,0.76,1.25,1.52,1.25h7.88c0.76,0,1.4-0.54,1.52-1.29
		l3.39-28.74H33.84z"/>
	<path class="st0" d="M39.52,16.49c-1.23,0-2.23-1-2.23-2.23c0-1.23,1-2.23,2.23-2.23c1.23,0,2.23,1,2.23,2.23
		C41.75,15.49,40.75,16.49,39.52,16.49z M39.52,13.79c-0.26,0-0.47,0.21-0.47,0.47c0,0.26,0.21,0.48,0.47,0.48
		c0.26,0,0.47-0.21,0.47-0.48C40,14,39.78,13.79,39.52,13.79z"/>
	<path class="st0" d="M45.61,22.43c-1.44,0-2.62-1.18-2.62-2.62c0-1.45,1.18-2.62,2.62-2.62c1.45,0,2.62,1.18,2.62,2.62
		C48.23,21.25,47.06,22.43,45.61,22.43z M45.61,18.95c-0.48,0-0.86,0.39-0.86,0.86c0,0.48,0.39,0.86,0.86,0.86
		c0.48,0,0.86-0.39,0.86-0.86C46.48,19.33,46.09,18.95,45.61,18.95z"/>
	<path class="st0" d="M40.87,28.6c-1.44,0-2.62-1.18-2.62-2.62c0-1.44,1.18-2.62,2.62-2.62c1.45,0,2.62,1.18,2.62,2.62
		C43.49,27.43,42.32,28.6,40.87,28.6z M40.87,25.12c-0.48,0-0.86,0.39-0.86,0.86c0,0.48,0.39,0.86,0.86,0.86
		c0.48,0,0.86-0.39,0.86-0.86C41.74,25.51,41.35,25.12,40.87,25.12z"/>
	<path class="st0" d="M48.01,8.49c-1.98,0-4.1-0.46-6.51-0.98c-3.88-0.84-7.55,0.55-7.59,0.56c-0.45,0.18-0.96-0.05-1.14-0.5
		c-0.17-0.45,0.05-0.96,0.5-1.14c0.17-0.07,4.2-1.58,8.59-0.64c4.14,0.89,6.88,1.48,9.59,0.22c0.44-0.2,0.96-0.01,1.17,0.43
		c0.2,0.44,0.01,0.96-0.43,1.17C50.84,8.25,49.46,8.49,48.01,8.49z"/>
</g>
</svg>
