<?xml version="1.0" encoding="utf-8"?>
<!-- Generator: Adobe Illustrator 24.0.1, SVG Export Plug-In . SVG Version: 6.00 Build 0)  -->
<svg version="1.1" id="_1" xmlns="http://www.w3.org/2000/svg" xmlns:xlink="http://www.w3.org/1999/xlink" x="0px" y="0px"
	 viewBox="0 0 36.93 33.58" style="enable-background:new 0 0 36.93 33.58;" xml:space="preserve">
<style type="text/css">
	.st0{fill:#C23233;}
</style>
<g>
	<path class="st0" d="M25.72,28.22c0.48,0.26,1.04,0.4,1.65,0.4c0.05,0,0.1,0,0.15-0.01c1.65-0.07,2.98-1.22,2.98-2.63
		c0-1.01-0.67-1.88-1.65-2.33c-0.44-0.2-0.94-0.31-1.48-0.31c-0.11,0-0.22,0.01-0.33,0.01c-1.56,0.14-2.79,1.27-2.79,2.63
		C24.24,26.92,24.83,27.75,25.72,28.22z M27.36,24.54c0.11,0,0.21,0.01,0.31,0.02c0.8,0.13,1.4,0.71,1.4,1.42
		c0,0.79-0.77,1.44-1.71,1.44c-0.16,0-0.31-0.02-0.45-0.05c-0.72-0.16-1.26-0.73-1.26-1.39C25.66,25.19,26.43,24.54,27.36,24.54z"/>
	<path class="st0" d="M35.08,30.29h-0.11c1.2-0.88,1.96-2.18,1.96-3.61c0-2.12-1.66-3.93-3.96-4.56c-0.04-0.01-0.06-0.02-0.09-0.02
		l-5.82-1.73l3.39-12.54h2.19c1.66,0,3.02-1.13,3.02-2.52V1.72c0-0.95-0.93-1.72-2.07-1.72s-2.06,0.77-2.06,1.72v2.64h-5.67
		c-1.14,0-2.06,0.77-2.06,1.73s0.92,1.73,2.06,1.73h0.25l-3.1,11.34L12.9,16.15l-0.16-0.05c-0.04-0.01-0.08-0.02-0.12-0.03
		c-0.69-0.2-1.41-0.34-2.16-0.4l-1.99-3.49h1.07c1.65,0,3-0.94,3-2.09c0-1.03-1.06-1.9-2.51-2.07L3.49,7.29
		C2.5,7.18,1.5,7.41,0.82,7.92C0.29,8.31,0,8.82,0,9.35v0.74c0,1.15,1.35,2.09,3,2.09h1.02l2.21,3.95
		c-3.62,1.12-6.19,4.03-6.19,7.43c0,2.84,1.8,5.33,4.49,6.73H1.85c-1,0-1.81,0.68-1.81,1.52v0.24c0,0.84,0.81,1.52,1.81,1.52h33.23
		c0.99,0,1.8-0.68,1.8-1.52v-0.24C36.88,30.98,36.07,30.29,35.08,30.29z M25.87,6.62c-0.35,0-0.64-0.24-0.64-0.53
		s0.29-0.53,0.64-0.53h1.11h3.55h1.72c0.39,0,0.71-0.26,0.71-0.6V1.72c0-0.29,0.29-0.52,0.64-0.52c0.36,0,0.65,0.23,0.65,0.52V5.3
		c0,0.73-0.72,1.33-1.6,1.33h-1.86h-4.34H25.87z M27.57,7.82H29l-3.27,12.14l-1.37-0.41L27.57,7.82z M1.42,10.09V9.35
		c0-0.25,0.18-0.43,0.33-0.53C2.06,8.59,2.52,8.46,3,8.46c0.1,0,0.2,0.01,0.3,0.01l6.53,0.74c0.74,0.08,1.29,0.46,1.29,0.88
		c0,0.49-0.72,0.89-1.58,0.89H7.34H4.47H3C2.14,10.99,1.42,10.58,1.42,10.09z M5.59,12.19H6.9l1.98,3.48
		c-0.43,0.02-0.85,0.07-1.26,0.14L5.59,12.19z M1.46,23.57c0-2.91,2.25-5.41,5.38-6.34c0.45-0.14,0.92-0.23,1.4-0.3
		c0.43-0.06,0.86-0.09,1.31-0.09c0.57,0,1.13,0.05,1.66,0.14c0.36,0.06,0.72,0.14,1.06,0.25l0.06,0.02l4.66,1.39l5.7,1.7l4.06,1.21
		l2.29,0.68l3.42,1.02c0.01,0.01,0.03,0.01,0.04,0.01c1.75,0.47,3.01,1.83,3.01,3.43c0,1.99-1.95,3.61-4.34,3.61h-3.8H14.57H9.55
		C5.09,30.29,1.46,27.28,1.46,23.57z M35.46,32.06c0,0.17-0.18,0.32-0.38,0.32H1.85c-0.21,0-0.39-0.15-0.39-0.32v-0.24
		c0-0.18,0.18-0.32,0.39-0.32h33.23c0.21,0,0.38,0.14,0.38,0.32V32.06z"/>
	<path class="st0" d="M15.28,27.39c-0.19,0.26-0.11,0.59,0.17,0.77c0.02,0.02,0.04,0.04,0.07,0.05c0.11,0.05,0.24,0.08,0.36,0.08
		c0.24,0,0.48-0.1,0.61-0.29l0.53-0.76l0.53-0.74c0.21-0.29,0.09-0.65-0.24-0.83c-0.02-0.01-0.04-0.02-0.07-0.02
		c-0.32-0.13-0.72-0.04-0.9,0.23l-0.17,0.24l-1.92-0.95c0.26-0.51,0.39-1.06,0.39-1.65c0-2.37-2.29-4.3-5.09-4.3
		s-5.09,1.92-5.09,4.3c0,2.37,2.28,4.29,5.09,4.29c1.61,0,3.05-0.63,3.98-1.62l1.92,0.95L15.28,27.39z M9.55,26.64
		c-2.02,0-3.66-1.39-3.66-3.09c0-1.71,1.64-3.1,3.66-3.1s3.67,1.39,3.67,3.1c0,0.36-0.08,0.71-0.21,1.03l-3.1-1.52
		c-0.34-0.17-0.77-0.07-0.97,0.22c-0.2,0.28-0.09,0.65,0.26,0.82l3.08,1.52C11.61,26.24,10.63,26.64,9.55,26.64z"/>
</g>
</svg>
