<svg id="Layer_1" data-name="Layer 1" xmlns="http://www.w3.org/2000/svg" viewBox="0 0 201 201"><defs><style>.cls-1{fill:#be2226;}</style></defs><title>Profile-Icon</title><g id="_7IaanA" data-name="7IaanA"><path class="cls-1" d="M200.5,100.44a100,100,0,1,1-200-.19C.53,45.16,45.43.46,100.72.5A100,100,0,0,1,200.5,100.44Zm-36.22,66.32A92,92,0,1,0,10.33,81.89a90.26,90.26,0,0,0,6.37,56.73,91.29,91.29,0,0,0,19.64,27.86c5.48-27.89,30.06-50.31,60.28-51.92a63.44,63.44,0,0,1,38.93,10.28C150.84,134.8,160.27,148.88,164.28,166.76Z"/><path class="cls-1" d="M100.62,42.92A32.65,32.65,0,1,1,68,75.56,32.56,32.56,0,0,1,100.62,42.92Z"/></g></svg>