<?xml version="1.0" encoding="utf-8"?>
<!-- Generator: Adobe Illustrator 24.0.1, SVG Export Plug-In . SVG Version: 6.00 Build 0)  -->
<svg version="1.1" id="Layer_1" xmlns="http://www.w3.org/2000/svg" xmlns:xlink="http://www.w3.org/1999/xlink" x="0px" y="0px"
	 viewBox="0 0 283.46 283.46" style="enable-background:new 0 0 283.46 283.46;" xml:space="preserve">
<style type="text/css">
	.st0{fill:none;stroke:#FFFFFF;stroke-width:5;stroke-miterlimit:10;}
	.st1{fill:#FFFFFF;}
</style>
<circle class="st0" cx="141.82" cy="141.68" r="139.07"/>
<g id="nqOBsq_1_">
	<g>
		<path class="st1" d="M139.52,114.19c-1,0.65-2.43,1.42-3.66,2.41c-1.57,1.27-3.12,1.39-4.88,0.55c-1.82-0.86-3.53-1.82-5.41,0.27
			c-0.96,1.07-2.58,0.9-3.72-0.32c-2.33-2.51-4.83-4.9-6.93-7.59c-2.3-2.94-5.27-4.21-8.95-3.16c-0.06,1.04-0.11,2.11-0.18,3.27
			c-1.44,0-2.78,0-4.33,0c0.11-1.03,0.19-1.81,0.27-2.64c-3.34-2.12-2.29-9.06,2.05-10.65c-1.88-1.1-3.75-2.03-3.94-4.53
			c-0.17-2.29,0.28-4.41,1.98-5.83c0.69-0.58,2.27-0.1,3.62-0.1c-0.13-5.98-1.29-11.82-3.4-17.45c-1.76-4.7-3.06-9.47-2.74-14.53
			c0.27-4.36,1.13-8.57,4.07-12.04c3.95-4.65,10.41-5.22,15.08-1.27c6.52,5.51,7.33,12.52,5.36,20.35
			c-1.47,5.83-5.22,10.18-8.72,14.79c-2.31,3.04-4.04,6.53-6.14,9.99c2.2,1.09,2.43,2.47,1.76,4.21c-0.61,1.61-0.36,3.11,0.95,4.38
			c2.69,2.6,5.12,5.55,8.11,7.74c1.74,1.27,4.36,1.4,6.61,1.9c0.27,0.06,0.79-0.68,1.1-1.11c1.12-1.53,2.24-3.06,3.3-4.63
			c1.29-1.92,2.53-3.87,3.79-5.81c1.87-2.87,3.73-5.73,5.77-8.86c-1.25-1.04-2.85-2.38-4.22-3.51c-1.75,0.4-3.25,0.65-4.68,1.12
			c-0.52,0.17-0.88,0.85-1.28,1.27c-0.16-0.36-0.46-1.03-0.67-1.51c-2.05-0.27-3.96-0.51-5.86-0.76c0-0.09,0-0.18,0-0.28
			c0.67-0.07,1.34-0.13,2.62-0.26c-0.82-0.31-1.06-0.4-1.48-0.56c1.2,0.07,2.24,0.13,3.28,0.19c-0.9-1.29-3.4,0.1-2.86-2.64
			c-1.57,0.15-2.92,0.28-4.26,0.41c-0.03-0.17-0.07-0.34-0.1-0.51c1.22-0.25,2.45-0.51,3.67-0.76c-2.23-0.21-1.65-2.13-2.16-3.45
			c0.37-0.03,0.72-0.06,0.8-0.06c0-1.49,0-2.94,0-4.59c0.63-0.08,1.33-0.18,2.23-0.3c0.12-0.69,0.31-1.72,0.39-2.15
			c1.26,1.61,2.74,3.5,4.22,5.39c0.1-0.11,0.2-0.22,0.3-0.32c-0.66-3.09-1.28-6.19-1.98-9.27c-0.66-2.95,0.34-5.37,2.45-7.31
			c4.21-3.87,9.16-5.59,14.9-4.73c3.85,0.58,7.83,4.28,8.38,8.11c0.47,3.26,0.64,6.56,1.41,10.02c0.5-1.45,1.01-2.9,1.44-4.12
			c0.02,0.07,0.13,0.5,0.34,1.29c0.54-1.54,0.96-2.74,1.33-3.78c0.44,0.64,1.05,1.51,1.81,2.61c0.11-0.86,0.19-1.52,0.28-2.18
			c1.08,1.92,1.06,3.84-0.23,6.65c0.88-0.54,1.5-0.91,2.66-1.62c-0.19,1.21-0.31,1.98-0.45,2.86c0.41-0.12,0.97-0.28,1.67-0.48
			c-0.57,1.02-1.04,1.88-1.79,3.22c0.64,0.99,1.36,2.11,2.08,3.22c0.33-0.31,0.66-0.61,0.99-0.92c-0.62-0.07-1.23-0.13-2.06-0.22
			c0.87,0.91,1.54,1.61,2.59,2.71c-1.54-0.6-2.57-1-3.83-1.5c0.22,0.63,0.33,0.95,0.4,1.15c-1.44-0.19-2.83-0.37-4.22-0.56
			c0.02,3.09,1.66,4.75,3.86,6.65c6.45,5.57,11.18,12.34,11.88,21.24c0.15,1.97,0.39,3.93,0.42,5.9c0.08,4.51,2.23,8.25,4.35,12
			c0.32,0.57,1.21,0.8,1.71,1.31c0.74,0.76,1.81,1.57,1.94,2.47c0.41,2.67,2.19,4.38,3.69,6.33c0.94,1.22,1.93,2.4,2.77,3.68
			c0.84,1.29,2.08,2.52,0.88,4.35c-0.27,0.4,0.32,1.33,0.45,2.03c0.86,4.82,0.83,9.61-0.4,14.37c-0.16,0.63-0.45,1.23-0.72,1.83
			c-2.76,6.03-5.57,12.03-8.28,18.08c-1.46,3.26-2.47,3.88-5.95,3.17c-0.71-0.15-1.48-0.27-2.08-0.64c-2.68-1.65-4.39-0.55-6.5,1.44
			c-3.55,3.35-7.59,6.17-11.42,9.22c-0.51,0.4-0.97,0.86-1.68,1.49c1.02,0.25,1.77,0.48,2.54,0.61c6.93,1.1,11.45,5.65,15.27,10.96
			c3.52,4.91,7.91,8.85,12.74,12.32c1.96,1.41,4.11,2.74,6.38,3.46c2.54,0.8,3.23,2.9,4.11,4.75c2.11,4.43,1.19,4.05-2.23,6.69
			c-2.74,2.11-5.44,4.5-7.48,7.26c-3.96,5.36-11.52,6.07-16.51,4.66c-0.75-0.21-1.56-1.48-1.68-2.35c-0.11-0.8,0.46-2.19,1.13-2.51
			c3.07-1.48,4.86-4.13,6.42-6.86c1.44-2.53,2.46-5.31,3.49-8.05c0.15-0.39-0.53-1.38-1.06-1.69c-2.52-1.45-5.08-2.83-7.69-4.1
			c-3.41-1.66-7-2.97-10.3-4.81c-6.19-3.45-12.24-7.15-18.29-10.83c-1.17-0.71-2.16-1.76-3.12-2.76c-2.77-2.87-3.29-5.63-1.48-9.2
			c2.7-5.33,5.56-10.57,8.31-15.77c-0.17,0.06-0.65,0.21-1.11,0.43c-4.07,1.97-8.21,3.82-12.18,5.96c-3.64,1.97-6.15,5.08-5.73,9.37
			c0.8,8.34-2.97,15.1-6.55,22.11c-2.36,4.63-4.01,9.66-5.65,14.62c-0.58,1.74-0.12,3.8-0.26,5.7c-0.2,2.64-0.46,5.28-0.84,7.89
			c-0.06,0.42-0.85,1.03-1.33,1.05c-1.22,0.06-2.58,0.13-3.67-0.32c-4.25-1.75-8.73-2.18-13.22-2.8c-4.29-0.59-8.12-2.38-11.11-5.65
			c-1.89-2.07-1.37-3.68,1.39-4.25c0.49-0.1,1.09-0.17,1.51,0.02c4.07,1.89,7.78-0.08,11.56-1.04c1.86-0.48,3.71-1.11,5.46-1.92
			c0.93-0.43,2.12-1.25,2.32-2.1c0.93-3.96,1.83-7.97,2.24-12.01c0.81-8.07,1.15-16.17,4.14-23.89c1.01-2.6,1.03-5.58,1.67-8.34
			c0.73-3.14,2.34-5.68,4.91-7.82c2.39-2,4.2-4.68,6.42-6.91c3.41-3.43,6.88-6.81,10.47-10.07c1.5-1.36,2.96-2.39,2.57-4.84
			c-0.1-0.63,1.4-1.86,2.39-2.25c4.53-1.78,9.17-3.26,13.69-5.05c1.92-0.76,1.85-2.7,2.05-4.85c0.25-2.57-1.49-3.85-2.15-5.75
			c-0.63-1.81-0.84-3.7-1.94-5.42c-1.57-2.45-3.66-3.94-6.25-5.22C142.77,117.82,141.35,115.87,139.52,114.19z M100.53,56.02
			c-0.16,4.11,0.5,7.48,2.75,11.52c2.35,4.22,9.32,7.73,14.07,2.96c1.82-1.82,3.15-4.34,4.12-6.77c2.67-6.71,3.46-13.52-1.19-19.76
			c-4.54-6.09-12.04-6.47-16.58-0.46C101.01,47.07,100.57,51.22,100.53,56.02z M104.64,71.67c0.92,3.8,1.88,7.72,2.96,12.2
			c1.98-3.55,3.65-6.53,5.15-9.22C109.97,73.63,107.35,72.67,104.64,71.67z M159.01,80.08c-0.89-2.54-2.41-3.52-4.22-4.06
			c-0.5-0.15-1.18,0.28-1.77,0.45c0.31,0.26,0.61,0.53,0.92,0.79C155.46,78.11,156.97,78.95,159.01,80.08z"/>
	</g>
</g>
</svg>
