<?xml version="1.0" encoding="utf-8"?>
<!-- Generator: Adobe Illustrator 24.0.1, SVG Export Plug-In . SVG Version: 6.00 Build 0)  -->
<svg version="1.1" id="Layer_1" xmlns="http://www.w3.org/2000/svg" xmlns:xlink="http://www.w3.org/1999/xlink" x="0px" y="0px"
	 viewBox="0 0 112.31 200" style="enable-background:new 0 0 112.31 200;" xml:space="preserve">
<style type="text/css">
	.st0{fill:#FFFFFF;}
</style>
<g id="nqOBsq_1_">
	<g>
		<path class="st0" d="M57.34,74.84c-0.98,0.64-2.38,1.39-3.59,2.37c-1.54,1.24-3.06,1.36-4.79,0.54c-1.79-0.85-3.47-1.79-5.31,0.27
			c-0.94,1.05-2.53,0.89-3.65-0.32c-2.29-2.46-4.74-4.81-6.81-7.45c-2.26-2.89-5.17-4.13-8.79-3.11c-0.06,1.02-0.11,2.07-0.17,3.21
			c-1.42,0-2.73,0-4.25,0c0.1-1.01,0.18-1.78,0.27-2.59c-3.28-2.08-2.25-8.9,2.01-10.45c-1.84-1.08-3.69-1.99-3.87-4.45
			c-0.17-2.25,0.27-4.33,1.94-5.72c0.68-0.57,2.23-0.09,3.56-0.09c-0.13-5.87-1.26-11.6-3.34-17.13c-1.73-4.61-3.01-9.3-2.69-14.27
			c0.27-4.28,1.11-8.42,4-11.82c3.88-4.57,10.22-5.12,14.81-1.25c6.41,5.41,7.2,12.29,5.26,19.98c-1.44,5.72-5.13,9.99-8.56,14.51
			c-2.27,2.99-3.97,6.41-6.02,9.81c2.16,1.07,2.38,2.42,1.73,4.13c-0.6,1.58-0.35,3.06,0.93,4.3c2.64,2.55,5.03,5.45,7.96,7.6
			c1.71,1.25,4.28,1.37,6.49,1.87c0.27,0.06,0.77-0.66,1.08-1.09c1.1-1.5,2.2-3.01,3.24-4.55c1.27-1.88,2.48-3.8,3.72-5.7
			c1.83-2.81,3.66-5.63,5.66-8.7c-1.23-1.02-2.8-2.33-4.14-3.45c-1.72,0.39-3.19,0.64-4.59,1.1c-0.51,0.17-0.86,0.84-1.26,1.25
			c-0.16-0.35-0.45-1.01-0.66-1.48c-2.01-0.26-3.89-0.5-5.76-0.74c0-0.09,0-0.18,0-0.27c0.66-0.06,1.32-0.13,2.57-0.25
			c-0.8-0.3-1.04-0.39-1.45-0.55c1.18,0.07,2.2,0.13,3.22,0.19c-0.88-1.26-3.34,0.1-2.81-2.59c-1.54,0.15-2.86,0.28-4.19,0.4
			c-0.03-0.17-0.07-0.33-0.1-0.5c1.2-0.25,2.4-0.5,3.6-0.75c-2.19-0.2-1.62-2.09-2.12-3.39c0.37-0.03,0.71-0.05,0.79-0.06
			c0-1.46,0-2.89,0-4.51c0.62-0.08,1.3-0.17,2.19-0.29c0.12-0.68,0.31-1.69,0.38-2.11c1.23,1.58,2.69,3.43,4.14,5.29
			c0.1-0.11,0.19-0.21,0.29-0.32c-0.64-3.03-1.26-6.08-1.94-9.1c-0.65-2.89,0.33-5.27,2.41-7.18c4.13-3.8,8.99-5.48,14.63-4.64
			c3.78,0.56,7.68,4.2,8.23,7.96c0.46,3.2,0.63,6.44,1.38,9.84c0.5-1.42,0.99-2.85,1.41-4.05c0.02,0.07,0.13,0.49,0.33,1.27
			c0.53-1.51,0.95-2.69,1.31-3.71c0.43,0.63,1.03,1.48,1.78,2.56c0.11-0.84,0.19-1.49,0.27-2.14c1.06,1.89,1.05,3.77-0.22,6.53
			c0.87-0.53,1.47-0.9,2.61-1.59c-0.19,1.19-0.31,1.94-0.44,2.8c0.4-0.12,0.95-0.27,1.64-0.47c-0.56,1-1.03,1.85-1.75,3.16
			c0.63,0.97,1.34,2.07,2.04,3.16c0.32-0.3,0.65-0.6,0.97-0.9c-0.6-0.07-1.21-0.13-2.02-0.22c0.85,0.89,1.51,1.58,2.54,2.66
			c-1.51-0.59-2.52-0.99-3.76-1.47c0.21,0.62,0.32,0.94,0.39,1.13c-1.41-0.19-2.78-0.37-4.15-0.55c0.02,3.04,1.63,4.67,3.79,6.53
			c6.33,5.46,10.97,12.12,11.66,20.85c0.15,1.93,0.38,3.86,0.41,5.79c0.07,4.43,2.19,8.1,4.27,11.78c0.32,0.56,1.19,0.78,1.68,1.29
			c0.72,0.75,1.77,1.54,1.91,2.43c0.4,2.62,2.15,4.3,3.62,6.22c0.92,1.2,1.9,2.36,2.72,3.62c0.83,1.27,2.05,2.47,0.86,4.27
			c-0.26,0.4,0.32,1.31,0.44,2c0.84,4.73,0.81,9.44-0.39,14.11c-0.16,0.62-0.44,1.21-0.71,1.79c-2.71,5.92-5.47,11.81-8.13,17.75
			c-1.44,3.2-2.43,3.81-5.84,3.11c-0.7-0.14-1.45-0.27-2.04-0.63c-2.63-1.62-4.31-0.54-6.38,1.41c-3.49,3.28-7.45,6.06-11.21,9.06
			c-0.5,0.4-0.95,0.84-1.65,1.46c1,0.24,1.74,0.47,2.49,0.59c6.8,1.08,11.24,5.54,14.99,10.76c3.46,4.82,7.76,8.69,12.51,12.1
			c1.92,1.38,4.04,2.69,6.27,3.4c2.49,0.79,3.17,2.85,4.04,4.67c2.07,4.35,1.17,3.98-2.19,6.57c-2.69,2.08-5.34,4.42-7.34,7.13
			c-3.89,5.27-11.31,5.96-16.2,4.57c-0.74-0.21-1.54-1.45-1.65-2.3c-0.1-0.79,0.46-2.15,1.11-2.46c3.02-1.45,4.77-4.05,6.3-6.74
			c1.42-2.48,2.42-5.22,3.43-7.9c0.14-0.38-0.52-1.36-1.04-1.66c-2.47-1.42-4.99-2.78-7.55-4.03c-3.35-1.63-6.87-2.92-10.11-4.72
			c-6.07-3.39-12.01-7.02-17.96-10.63c-1.15-0.7-2.12-1.73-3.06-2.71c-2.72-2.81-3.23-5.53-1.45-9.03
			c2.65-5.23,5.46-10.38,8.16-15.48c-0.16,0.06-0.64,0.21-1.08,0.42c-4,1.93-8.06,3.75-11.96,5.85c-3.57,1.93-6.03,4.99-5.63,9.2
			c0.78,8.18-2.92,14.82-6.43,21.7c-2.32,4.55-3.93,9.49-5.55,14.35c-0.56,1.7-0.11,3.73-0.25,5.6c-0.19,2.59-0.46,5.18-0.83,7.75
			c-0.06,0.42-0.84,1.01-1.3,1.03c-1.2,0.06-2.53,0.13-3.61-0.32c-4.18-1.72-8.57-2.14-12.98-2.75C7.8,193.97,4.04,192.22,1.1,189
			c-1.86-2.03-1.35-3.61,1.37-4.18c0.48-0.1,1.07-0.17,1.48,0.02c3.99,1.86,7.64-0.07,11.35-1.03c1.83-0.47,3.64-1.09,5.36-1.89
			c0.91-0.42,2.08-1.23,2.28-2.06c0.91-3.89,1.8-7.82,2.2-11.79c0.8-7.92,1.13-15.87,4.07-23.45c0.99-2.56,1.01-5.47,1.64-8.19
			c0.72-3.08,2.3-5.57,4.82-7.68c2.35-1.97,4.12-4.6,6.3-6.79c3.35-3.37,6.76-6.69,10.28-9.88c1.47-1.33,2.91-2.35,2.52-4.75
			c-0.1-0.61,1.38-1.83,2.35-2.21c4.44-1.75,9-3.2,13.44-4.96c1.89-0.75,1.81-2.65,2.02-4.76c0.24-2.52-1.46-3.78-2.11-5.64
			c-0.61-1.77-0.82-3.63-1.91-5.32c-1.54-2.41-3.59-3.87-6.14-5.12C60.53,78.41,59.14,76.49,57.34,74.84z M19.07,17.74
			c-0.16,4.03,0.49,7.34,2.7,11.31c2.31,4.14,9.15,7.58,13.81,2.91c1.79-1.79,3.1-4.26,4.04-6.65c2.62-6.59,3.39-13.28-1.17-19.4
			c-4.45-5.97-11.82-6.35-16.27-0.45C19.55,8.95,19.11,13.03,19.07,17.74z M23.11,33.11c0.91,3.73,1.84,7.58,2.91,11.97
			c1.95-3.48,3.58-6.41,5.06-9.05C28.34,35.03,25.76,34.08,23.11,33.11z M76.48,41.36c-0.88-2.5-2.37-3.46-4.14-3.98
			c-0.49-0.15-1.16,0.28-1.74,0.44c0.3,0.26,0.6,0.52,0.9,0.78C72.99,39.42,74.48,40.25,76.48,41.36z"/>
	</g>
</g>
</svg>
