<?xml version="1.0" encoding="utf-8"?>
<!-- Generator: Adobe Illustrator 24.0.1, SVG Export Plug-In . SVG Version: 6.00 Build 0)  -->
<svg version="1.1" id="Layer_1" xmlns="http://www.w3.org/2000/svg" xmlns:xlink="http://www.w3.org/1999/xlink" x="0px" y="0px"
	 viewBox="0 0 155.39 200" style="enable-background:new 0 0 155.39 200;" xml:space="preserve">
<style type="text/css">
	.st0{fill:#FFFFFF;}
</style>
<g id="KhDLtQ_1_">
	<path class="st0" d="M154.7,151.53c-0.19-0.5-0.61-0.99-0.6-1.48c0.11-5.25-2.88-8.87-6.23-12.39c-3.07-3.24-7.35-5.07-9.81-9.13
		c-1.07-1.77-3.62-2.66-5.53-3.91c-0.71-0.46-1.58-0.7-2.23-1.22c-3.32-2.65-6.89-4.73-11.2-5.24c-1.02-0.12-1.57-0.72-1.57-1.74
		c-0.03-3.66-1.24-7.03-2.5-10.38c-2.15-5.73-4.32-11.45-6.52-17.15c-0.22-0.57-0.7-1.04-1.08-1.55c-0.28-0.38-0.68-0.71-0.87-1.13
		c-0.67-1.48-1.31-2.97-1.91-4.48c-0.52-1.3-1.63-2.83-1.3-3.89c0.65-2.1,0.06-3.5-1.08-5.08c-0.64-0.9-0.86-2.09-1.3-3.14
		c-0.56-1.35-1.1-2.7-1.74-4.01c-1.46-3.02-3.04-5.98-4.45-9.02c-1.3-2.81-2.55-5.58-6.17-5.85c0.39-2.74-0.2-5.15-1.53-7.34
		c-3.51-5.78-8.15-10.59-13.37-14.81c-2.72-2.21-5.72-4.08-8.36-5.94c0-0.88,0.12-1.73-0.02-2.53c-0.39-2.14-0.93-4.24-1.32-6.38
		c-0.22-1.2-0.61-2.09-2.1-1.86c0.17-2.71-0.72-4.67-3.22-5.71C58.34,6.01,58,5.68,57.76,5.35c-1.82-2.54-4.32-4.09-7.27-4.92
		c-1.11-0.31-2.46-1.1-3,0.85c-0.03,0.12-0.37,0.19-0.57,0.23c-2.48,0.52-4.97,1-7.44,1.57c-0.58,0.13-1.43,0.43-1.6,0.87
		c-1.52,3.98-2.51,8.1-2.08,12.38c0.14,1.35,1.04,2.62,1.64,4.02c-1.19,0.13-2.37,0.21-3.53,0.4c-6.29,1.03-11.81,4-17.14,7.23
		c-3.71,2.25-7.44,4.16-11.73,4.98c-2.79,0.53-3.76,1.75-4.14,4.51c-0.18,1.29-0.39,2.58-0.55,3.87c-0.82,6.37-0.5,12.49,4.16,17.55
		c2.67,2.91,5.24,5.95,8.15,8.61c1.46,1.34,3.55,1.98,2.27,4.55c-0.04,0.09-0.03,0.23,0.01,0.32c0.98,1.91,1.63,4.13,3.03,5.65
		c2.33,2.54,5.04,4.79,7.81,6.86c1.55,1.16,3.54,2.3,5.37,2.37c2.31,0.09,3.53,0.94,4.63,2.74c0.64,1.05,0.85,1.88,0.51,3.13
		c-1.31,4.93-2.42,9.9-3.61,14.86c-0.54,2.24-1.06,4.48-1.66,6.69c-0.63,2.28-1.77,4.51-1.94,6.82c-0.2,2.78,0.3,5.62,0.68,8.41
		c0.35,2.5,1.09,4.95,1.4,7.46c0.36,2.89,0.24,5.85,0.67,8.72c0.52,3.47,1.4,6.89,2.14,10.33c0.52,2.38,0.81,4.86,1.7,7.11
		c0.56,1.41,0.27,2.26-0.55,3.17c-0.65,0.72-1.37,1.4-2.15,1.99c-2.23,1.67-4.52,3.26-6.74,4.95c-0.72,0.55-1.38,1.24-1.88,1.99
		c-1.42,2.14-1.07,3.81,1.02,5.31c-0.4,1.1-0.82,2.22-1.21,3.34c-0.96,2.73-0.03,3.94,2.9,3.61c2.43-0.27,4.86-0.6,7.25-1.08
		c3.98-0.8,7.94-1.73,11.9-2.62c1.98-0.45,2.63-1.95,2.73-3.76c0.05-0.85-0.19-1.72-0.21-2.59c-0.01-0.56-0.08-1.42,0.23-1.64
		c1.76-1.23,2.35-2.87,2.39-4.96c0.04-2.14,0.41-4.28,0.52-6.42c0.08-1.55,0.02-3.11-0.07-4.67c-0.03-0.5-0.25-1.16-0.61-1.45
		c-0.96-0.75-0.77-1.59-0.38-2.45c0.82-1.83,1.34-3.66,0.74-5.69c-0.13-0.46,0.11-1.05,0.25-1.56c1.21-4.43,2.17-8.87,0.52-13.41
		c-0.24-0.65-0.46-1.31-0.69-1.96c-0.25-0.72-0.79-1.47-0.71-2.15c0.39-3.11,0.95-6.2,1.41-9.12c1.77-0.36,3.38-0.69,5.12-1.05
		c4.25,6.12,8.61,12.42,13,18.69c10.65,15.23,21.3,30.46,31.99,45.66c2.02,2.88,4.14,5.7,6.35,8.43c1.18,1.45,2.81,1.93,4.7,1.24
		c1.78-0.65,3.6-1.17,4.98-1.62c0.01,0.01,0.02,0.03,0.03,0.04c-0.02,0.2-0.04,0.41-0.04,0.62c0,3.09,2.51,5.6,5.6,5.6
		c3.09,0,5.6-2.51,5.6-5.6c0-3.09-2.51-5.6-5.6-5.6c-1.13,0-2.19,0.34-3.07,0.92c0-2.68,0-5.22,0-8.02c-0.9,0.75-1.43,1.3-2.06,1.69
		c-1.92,1.21-3.79,2.56-5.84,3.48c-2.55,1.15-4.83,0.55-6.02-1.16c-2.73-3.92-5.45-7.84-8.17-11.76c-5.49-7.9-10.98-15.8-16.47-23.7
		c-7.32-10.52-14.65-21.04-22.02-31.63c0.67-0.56,1.35-1.03,1.89-1.63c0.64-0.71,1.21-1.51,1.7-2.33c0.71-1.18,1.21-2.51,2.01-3.62
		c1.89-2.64,4.48-4.93,4.89-8.33c0.25-2.1,1.74-2.97,3.16-3.49c0.72-0.26,2.12,0.94,3.02,1.7c0.77,0.65,1.41,1.54,1.87,2.45
		c1.91,3.72,3.74,7.47,5.57,11.22c1.55,3.17,3.01,6.37,4.6,9.52c1.15,2.29,3.59,3.18,6.98,2.44c1.14-0.25,1.67-0.03,2.19,0.93
		c2.49,4.55,5.25,8.88,10.35,10.99c0.54,0.22,1.08,0.53,1.65,0.6c3,0.37,6.01,0.68,9.02,1.01c1.67,0.19,3.33,0.49,5,0.58
		c4.57,0.24,8.64,1.58,12.2,4.61c3.13,2.67,6.41,5.2,9.79,7.53c1.99,1.37,4.33,1.73,6.43,0.03c0.78,0.36,1.52,0.71,2.26,1.05
		c0.14-0.12,0.28-0.23,0.42-0.35C155.16,152.87,154.95,152.19,154.7,151.53z M43.85,77.72c-1.03,1.63-1.8,3.43-3.72,4.38
		c-0.62,0.31-0.99,1.21-1.38,1.9c-0.36,0.64-0.6,1.36-0.99,2.29c-1.14-1.68-2.14-3.14-2.88-4.24c0.39-1.14,0.81-1.99,0.95-2.88
		c0.34-2.11,0.16-4.12-0.78-6.17c-0.57-1.25,0.01-2.98-0.4-4.35c-0.96-3.28-2.24-6.45-2.6-9.91c-0.12-1.13-0.65-2.48-2.37-2.44
		c-0.24,0.01-0.51-0.6-0.74-0.94c-0.6-0.85-1.19-1.7-1.84-2.63c0.73-0.53,1.69-1.21,3.04-2.18c0.75,2.2,1.72,4.16,2.06,6.23
		c0.66,4,2.62,7.06,5.72,9.52c0.29,0.23,0.74,0.5,0.76,0.77c0.24,3.36,2.68,5.36,4.75,7.52C44.46,75.65,44.6,76.55,43.85,77.72z"/>
</g>
</svg>
