<?xml version="1.0" encoding="utf-8"?>
<!-- Generator: Adobe Illustrator 24.0.1, SVG Export Plug-In . SVG Version: 6.00 Build 0)  -->
<svg version="1.1" id="Layer_1" xmlns="http://www.w3.org/2000/svg" xmlns:xlink="http://www.w3.org/1999/xlink" x="0px" y="0px"
	 viewBox="0 0 117.47 200.28" style="enable-background:new 0 0 117.47 200.28;" xml:space="preserve">
<style type="text/css">
	.st0{fill:#FFFFFF;}
</style>
<g id="VqaraT_1_">
	<g>
		<path class="st0" d="M57.64,154.92c-3.88-6.33-7.65-12.46-11.4-18.6c-1.16-1.91-1.46-2.08-3.23-0.66
			c-1.73,1.39-3.43,2.89-4.88,4.57c-4.54,5.28-9.41,10.08-15.78,12.25c-0.51,1.84-1.01,3.38-1.36,4.96
			c-0.21,0.94-0.24,1.92-0.26,2.89c-0.06,3.1,0.1,6.21-0.16,9.29c-0.15,1.75-1.25,3.41-1.4,5.16c-0.4,4.45-0.47,8.93-0.76,13.39
			c-0.1,1.53-0.38,3.07-0.73,4.56c-0.14,0.62-0.57,1.33-1.08,1.66c-1.19,0.77-1.52,1.46-0.52,2.67c0.78,0.94,0.25,1.65-0.79,1.92
			c-4.25,1.1-8.57,1.5-12.92,0.84c-0.57-0.09-1.47-1.05-1.42-1.52c0.15-1.49,0.43-3.07,1.13-4.36c0.75-1.39,1.39-2.53,0.64-4.13
			c-0.35-0.74-0.28-1.7-0.28-2.57c-0.07-11.12-0.1-22.25-0.18-33.38c-0.01-1.8-0.39-3.61-0.2-5.38c0.22-1.99,0.8-3.96,1.43-5.87
			c0.59-1.81,1.47-3.51,2.16-5.29c0.7-1.79,1.22-3.65,2.01-5.39c1.5-3.3,3.37-4.38,6.84-3.49c2.17,0.56,3.53,0,4.63-1.72
			c1.54-2.43,4.13-3.97,5.14-6.96c0.57-1.7,2.51-2.94,3.83-4.39c1.24-1.36,2.48-2.73,3.71-4.08c-2.76-2.67-2.1-4.87,1.47-6.05
			c0.5-2.4,1.04-4.74,1.44-7.11c0.15-0.9,0.1-1.88-0.05-2.79c-0.67-4.16-1.44-8.3-2.12-12.45c-0.2-1.22-0.25-2.47-0.78-4.01
			c-0.88,1.03-1.86,1.99-2.61,3.1c-1.28,1.88-1.85,2.13-3.4,0.47c-2.52-2.69-5.09-3.66-8.94-2.59c-4.99,1.39-6.21,0.17-7.48-4.92
			c-1.39-5.57-2.19-11.18-2.06-16.95c0.05-2.05-0.72-4.11-1.11-6.1c-3.53-0.48-4.28-1.28-5.32-4.61c-0.79-2.54-0.79-4.57,1.67-6.32
			c1.26-0.89,1.93-2.56,3.05-3.69c2.23-2.24,4.41-4.6,6.93-6.46c2.2-1.62,4.62-1.35,7.39,0.13c5.29-5.69,10.73-11.4,15.99-17.27
			c3.61-4.02,6.98-8.25,10.42-12.42c0.7-0.84,1.37-1.48,2.5-0.89c1.18,0.61,1.11,1.55,0.78,2.69c-2.47,8.38-6.64,15.83-12.9,21.9
			c-3.32,3.22-7.26,5.81-10.92,8.69c-0.39,0.31-0.8,0.59-1.19,0.9c-1.54,1.24-1.71,2.22-0.47,3.97c-0.89,0.42-1.73,0.82-2.33,1.11
			c-0.51,1.14-1.32,2.13-1.3,3.11c0.03,1.42,0.33,3.06,1.11,4.2c2.95,4.27,6.15,8.38,9.01,12.22c3.9-0.89,7.46-1.71,11.02-2.53
			c-1.24-3.09-2.42-6.05-3.62-9.01c-0.42-1.04-1.29-2.15,0.88-2.24c0.27-0.01,0.61-0.94,0.75-1.48c1.03-4.04,2.85-7.49,7.09-8.88
			c6.56-2.16,12.07,1.63,13.1,8.72c0.21,1.46,1.01,2.83,1.59,4.37c0.07-0.03-0.35,0.15-0.87,0.38c0.2,1.95,0.41,3.91,0.64,6.13
			c-0.46,0.44-1.25,1.18-1.86,1.75c1.14,2.53,1.8,5.09,3.29,7.02c2.44,3.14,3.06,6.81,3.95,10.43c0.31,1.26-0.03,2.68-0.05,4.03
			c-0.03,3.4,0.08,6.81-0.12,10.2c-0.11,1.9-0.99,3.76-1.03,5.65c-0.05,2.96,0.34,5.93,0.51,8.9c0.09,1.56,0.09,3.13,0.11,4.69
			c0.01,0.92-0.28,1.92,0,2.75c0.76,2.29,1.74,4.51,2.64,6.75c0.94,2.34,1.44,4.71,0.91,7.26c-0.16,0.8,0.21,1.71,0.36,2.57
			c0.03,0.18,0.27,0.41,0.22,0.49c-1.56,2.35,0.62,4.15,0.95,6.2c0.78,4.88,1.62,9.79,2.93,14.55c0.7,2.55,2.4,4.84,3.72,7.2
			c0.14,0.26,0.77,0.22,1.14,0.38c0.61,0.27,1.52,0.47,1.72,0.94c0.74,1.75,2.31,1.9,3.77,2.49c3.3,1.33,5.39,4.08,7.46,6.82
			c1.01,1.33,2.02,2.67,3.13,3.91c0.92,1.03,1.79,2.26,3.54,1.88c0.32-0.07,0.82,0.28,1.12,0.56c1.83,1.76,3.62,3.56,5.44,5.34
			c1.97,1.92,2,2.1,0.78,4.65c-0.21,0.44-0.42,0.87-0.7,1.45c2.31,0.67,2.9,2.32,2.88,4.44c-0.02,1.48,0.14,2.98,0.31,4.46
			c0.19,1.69-0.54,2.94-2.06,3.31c-2.32,0.55-4.72,0.86-7.11,1.01c-0.63,0.04-1.78-0.75-1.91-1.33c-0.54-2.5-0.78-5.06-1.11-7.44
			c-0.79-0.24-1.37-0.3-1.84-0.56c-8.13-4.65-16.31-9.23-24.35-14.05c-2.58-1.55-4.99-3.51-7.13-5.64
			c-2.08-2.07-3.77-4.56-5.54-6.93C55.68,158.64,55.89,157.03,57.64,154.92z M17.36,69.86c1.74-1.14,3.39-2.34,5.16-3.33
			c1.31-0.73,1.34-1.46,0.43-2.44c-2.55-2.73-4-6.04-5.16-9.53c-0.87-2.62-1.99-5.15-2.99-7.72c-1.59,3.26-1.52,4.53-0.29,5.98
			c-0.44,1.18-1.43,2.45-1.19,3.4C14.45,60.74,15.93,65.18,17.36,69.86z M59.14,54.23c1.16-1.61,0.69-3.29,0.09-4.97
			C57.81,50.86,58.97,52.56,59.14,54.23z M38.83,47.83c0.6,1.63,1.05,2.85,1.51,4.06c0.16-0.06,0.32-0.12,0.48-0.19
			C40.27,50.51,41.95,48.5,38.83,47.83z"/>
		<path class="st0" d="M111,53.24c-3.43,0.03-6.15-2.64-6.18-6.06c-0.03-3.44,2.63-6.19,6.02-6.24c3.36-0.04,6.21,2.73,6.24,6.08
			C117.12,50.4,114.37,53.21,111,53.24z"/>
	</g>
</g>
</svg>
