<?xml version="1.0" encoding="utf-8"?>
<!-- Generator: Adobe Illustrator 24.0.1, SVG Export Plug-In . SVG Version: 6.00 Build 0)  -->
<svg version="1.1" id="Layer_1" xmlns="http://www.w3.org/2000/svg" xmlns:xlink="http://www.w3.org/1999/xlink" x="0px" y="0px"
	 viewBox="0 0 103.79 200.01" style="enable-background:new 0 0 103.79 200.01;" xml:space="preserve">
<style type="text/css">
	.st0{fill:#FFFFFF;}
</style>
<g id="oFMIyw_1_">
	<g>
		<path class="st0" d="M103.53,66.38c-0.35,3.35-0.82,6.69-1.04,10.04c-0.35,5.41-0.57,10.83-0.76,16.25
			c-0.09,2.56-0.86,3.89-3.26,4.21c-2.87,0.38-5.78,0.54-8.68,0.6c-1.69,0.04-2.91-1.33-2.48-2.89c0.87-3.15,2.01-6.23,3.06-9.33
			c0.08-0.24,0.22-0.52,0.42-0.67c3.63-2.68,2.89-6.58,2.63-10.19c-0.34-4.68-1.08-9.34-1.64-14c-0.33-2.72-0.82-3.04-3.47-2.45
			c-4.08,0.91-8.1,0.33-12.08-0.63c-1.07-0.26-3.78,0.98-4.15,2.22c-1.35,4.5-2.86,8.97-3.77,13.57c-0.47,2.38-0.1,5.04,0.43,7.46
			c0.76,3.48,0.74,6.79-0.39,10.16c-0.29,0.87-0.11,1.9-0.12,2.85c-0.01,0.98,0.35,2.14-0.07,2.89c-0.77,1.41-0.14,2.15,0.69,3.09
			c2.02,2.28,2.02,2.62,0.56,5.23c-0.19,0.34-0.47,0.7-0.49,1.07c-0.2,3.67-2.78,5.74-5.11,8.11c-1.73,1.75-2.86,4.08-4.39,6.05
			c-0.83,1.06-1.96,1.89-2.92,2.85c-0.92,0.92-1.84,1.85-2.7,2.83c-1.48,1.7-2.71,3.43-4.82,4.72c-3.64,2.23-6.73,5.34-10.05,8.08
			c-1.08,0.89-1.13,1.68-0.44,3.03c2.38,4.62,2.17,9.34-0.28,13.91c-0.53,1-0.34,1.65,0.02,2.67c0.76,2.14,1.42,4.43,1.49,6.68
			c0.15,4.36,0.15,8.77-0.31,13.1c-0.57,5.33-2.36,10.25-7.29,13.26c-2.81,1.72-4.66,1.73-7.28,0.36c-0.07,0.11-0.18,0.21-0.2,0.33
			c-0.67,3.66-0.69,3.59-4.34,4.4c-1.53,0.34-2.95,1.16-4.47,1.54c-3.31,0.83-6.64,1.62-10,2.2c-0.73,0.13-2.02-0.46-2.31-1.07
			c-0.27-0.59,0.17-1.9,0.74-2.42c1.7-1.53,3.49-3.03,5.46-4.17c2.64-1.53,4.02-3.92,3.25-6.95c-0.57-2.24-1.3-4.46-2.16-6.6
			c-2.35-5.82-2.8-11.96-3.28-18.1c-0.07-0.88,0.11-1.92,0.53-2.68c2.43-4.38,2.85-9.22,2.69-13.99c-0.21-6.46,0.76-12.66,2.5-18.82
			c0.48-1.68,1.12-3.2,0.65-5.21c-0.53-2.31-0.09-4.89,0.21-7.31c0.13-1.03,1.03-1.95,1.49-2.95c0.73-1.58,1.4-3.19,2.09-4.79
			c1.29-2.96,2.6-5.92,3.86-8.89c0.43-1.02,0.68-2.11,1.1-3.14c0.51-1.24,0.91-2.59,1.71-3.62c1.38-1.77,1.24-2.63,0.36-4.62
			c-1.6-3.62-3.9-4.26-7.58-3.33c-3.88,0.97-7.87,0.38-11.8-0.55c-2.75-0.65-4.3-2.13-4.9-4.8c-0.07-0.3-0.27-0.57-0.41-0.85
			c0-1.59,0-3.18,0-4.78c0.16-0.28,0.36-0.54,0.48-0.84c2.74-6.38,5.38-12.81,8.25-19.13c1.11-2.44,3.08-4.52,4.04-7
			c1.78-4.58,5.36-7.58,8.74-10.71c4.95-4.59,11.41-5.95,17.77-7.6c-0.37-1.1-0.96-2.26-1.1-3.48c-0.13-1.11-0.17-2.86,0.47-3.31
			c1.21-0.86,1.07-1.78,1.09-2.86c0.03-1.59,0.26-3.2,0.07-4.77c-0.49-4.15,1.66-6.66,4.98-8.51c2.6-1.45,5.48-2.65,8.37-1.94
			c2.69,0.66,5.19,2.2,7.69,3.51c3.39,1.78,4.46,5.05,4.32,8.5c-0.17,4.2-0.6,8.41-2.67,12.29c-0.74,1.39-0.79,3.2-0.9,4.83
			c-0.03,0.52,0.67,1.27,1.22,1.62c1.15,0.72,2.42,1.26,3.66,1.83c1.78,0.82,3.52,1.82,5.4,2.33c2.89,0.78,5.61,1.76,8.03,3.57
			c0.6,0.45,1.41,0.8,2.16,0.88c5.28,0.56,9.76,3.22,14.43,5.37c3.09,1.42,4.68,3.94,5.38,7.17c0.46,2.11,1.06,4.2,1.59,6.3
			C103.53,61.08,103.53,63.73,103.53,66.38z M44.31,66.38c0.77-1.38,2.29-2.82,2.09-3.95c-0.98-5.54-3.09-10.64-8.42-13.49
			c-3.02-1.61-6.25-1.66-8.9,0.79c-4.25,3.91-7.12,8.69-7.91,14.53c-0.4,2.96-0.36,3.09,2.58,3.6c8.69,1.52,10.6,0.36,14.44-5.04
			c0.7-0.99,0.97-2.28,1.42-3.44c0.24-0.61,0.28-1.42,0.72-1.79c0.54-0.45,1.39-0.69,2.1-0.68c0.24,0,0.72,1.05,0.66,1.58
			c-0.12,1.16-0.44,2.32-0.8,3.43C41.52,64.27,42,65.52,44.31,66.38z M23.4,80.02c1.69,4.24,4.28,7.1,8.74,7.41
			c4.7,0.32,7.15-3.07,9.79-6.5c-0.91-0.94-1.6-2.08-2.61-2.59c-1.34-0.68-2.93-0.89-4.43-1.23c-0.63-0.14-1.35-0.25-1.94-0.07
			C29.79,77.97,26.66,78.99,23.4,80.02z M25.42,155.21c-0.53,2.67-1.48,4.95-1.31,7.14c0.39,5.13,0.32,10.14-0.71,15.2
			c-0.55,2.7-0.46,5.54-0.66,8.31c0.22,0.02,0.43,0.04,0.65,0.06c0.15-0.43,0.31-0.86,0.44-1.29c2-6.6,2.56-13.35,2.33-20.22
			c-0.05-1.55,0.08-3.31,0.76-4.65C27.89,157.86,27.11,156.84,25.42,155.21z M20.07,63.14c-1.38,1.19-2.3,1.98-3.47,2.98
			c1.28,0.29,2.09,0.47,3.12,0.7C19.83,65.67,19.92,64.67,20.07,63.14z"/>
	</g>
</g>
</svg>
