<?xml version="1.0" encoding="utf-8"?>
<!-- Generator: Adobe Illustrator 24.0.1, SVG Export Plug-In . SVG Version: 6.00 Build 0)  -->
<svg version="1.1" id="_1" xmlns="http://www.w3.org/2000/svg" xmlns:xlink="http://www.w3.org/1999/xlink" x="0px" y="0px"
	 viewBox="0 0 49.9 33.58" style="enable-background:new 0 0 49.9 33.58;" xml:space="preserve">
<style type="text/css">
	.st0{fill:#C23233;}
</style>
<g>
	<path class="st0" d="M16.54,20.98c-0.12,0-0.25-0.03-0.37-0.09c-0.37-0.21-0.51-0.68-0.31-1.06l1.66-3.09l-2.12-2.2
		c-0.19-0.19-0.45-0.29-0.72-0.26c-0.27,0.03-0.5,0.17-0.65,0.4l-1.98,3.12c-1.04,1.63-3.21,2.13-4.84,1.11
		c-0.83-0.52-1.4-1.33-1.6-2.3c-0.2-0.96-0.02-1.94,0.53-2.76l5.04-7.52c0.49-0.73,1.23-1.2,2.08-1.35c0.86-0.14,1.71,0.07,2.4,0.6
		l17.99,13.86c0.34,0.26,0.4,0.75,0.15,1.09c-0.26,0.34-0.74,0.41-1.08,0.15L14.73,6.82c-0.35-0.27-0.78-0.38-1.21-0.31
		c-0.43,0.07-0.81,0.31-1.05,0.68l-5.04,7.52c-0.31,0.46-0.41,1.01-0.3,1.56c0.12,0.54,0.44,1,0.9,1.3
		c0.92,0.58,2.14,0.29,2.73-0.63l1.98-3.12c0.4-0.63,1.05-1.04,1.79-1.11c0.74-0.07,1.46,0.19,1.98,0.73l2.51,2.61
		c0.24,0.24,0.29,0.62,0.13,0.92l-1.93,3.6C17.08,20.83,16.81,20.98,16.54,20.98z"/>
	<path class="st0" d="M33.18,14.33c-3.9,0-7.08-3.21-7.08-7.16C26.1,3.21,29.28,0,33.18,0c3.9,0,7.08,3.21,7.08,7.16
		C40.26,11.11,37.09,14.33,33.18,14.33z M33.18,1.56c-3.05,0-5.54,2.51-5.54,5.6s2.48,5.6,5.54,5.6c3.05,0,5.54-2.51,5.54-5.6
		S36.24,1.56,33.18,1.56z"/>
	<path class="st0" d="M46.11,24.46c-1.14,0-2.23-0.46-3.02-1.28c-0.8,0.82-1.89,1.28-3.02,1.28c-1.14,0-2.23-0.46-3.02-1.28
		c-0.8,0.82-1.89,1.28-3.02,1.28c-1.14,0-2.23-0.46-3.02-1.28c-0.8,0.82-1.89,1.28-3.02,1.28c-1.14,0-2.23-0.46-3.02-1.28
		c-0.8,0.82-1.89,1.28-3.02,1.28c-1.14,0-2.23-0.46-3.02-1.28c-0.8,0.82-1.89,1.28-3.02,1.28c-1.14,0-2.23-0.46-3.02-1.28
		c-0.8,0.82-1.89,1.28-3.02,1.28c-1.14,0-2.23-0.46-3.02-1.28c-0.8,0.82-1.89,1.28-3.02,1.28c-1.51,0-2.92-0.82-3.68-2.15
		c-0.21-0.37-0.09-0.85,0.28-1.07c0.37-0.21,0.84-0.09,1.05,0.28c0.48,0.84,1.38,1.37,2.34,1.37c0.77,0,1.5-0.33,2.02-0.92
		c0.25-0.29,0.62-0.45,1.01-0.45c0.39,0,0.75,0.17,1.01,0.45c0.51,0.58,1.25,0.92,2.02,0.92s1.5-0.33,2.02-0.92
		c0.51-0.58,1.51-0.58,2.02,0c0.51,0.58,1.25,0.92,2.02,0.92c0.77,0,1.5-0.33,2.02-0.92c0.51-0.58,1.51-0.58,2.02,0
		c0.51,0.58,1.25,0.92,2.02,0.92s1.5-0.33,2.02-0.92c0.51-0.58,1.51-0.58,2.02,0c0.51,0.58,1.25,0.92,2.02,0.92
		c0.77,0,1.5-0.33,2.02-0.92c0.51-0.58,1.51-0.58,2.02,0c0.51,0.58,1.25,0.92,2.02,0.92c0.77,0,1.5-0.33,2.02-0.92
		c0.51-0.58,1.51-0.58,2.02,0c0.51,0.58,1.25,0.92,2.02,0.92c0.77,0,1.5-0.33,2.02-0.92c0.51-0.58,1.51-0.58,2.02,0
		c0.51,0.58,1.25,0.92,2.02,0.92c0.96,0,1.86-0.52,2.34-1.37c0.21-0.37,0.69-0.5,1.05-0.28c0.37,0.22,0.49,0.69,0.28,1.07
		C49.03,23.63,47.62,24.46,46.11,24.46z"/>
	<path class="st0" d="M46.11,29.02c-1.14,0-2.23-0.46-3.02-1.28c-0.8,0.82-1.89,1.28-3.02,1.28c-1.14,0-2.23-0.46-3.02-1.28
		c-0.8,0.82-1.89,1.28-3.02,1.28c-1.14,0-2.23-0.46-3.02-1.28c-0.8,0.82-1.89,1.28-3.02,1.28c-1.14,0-2.23-0.46-3.02-1.28
		c-0.8,0.82-1.89,1.28-3.02,1.28c-1.14,0-2.23-0.46-3.02-1.28c-0.8,0.82-1.89,1.28-3.02,1.28c-1.14,0-2.23-0.46-3.02-1.28
		c-0.8,0.82-1.89,1.28-3.02,1.28c-1.14,0-2.23-0.46-3.02-1.28c-0.8,0.82-1.89,1.28-3.02,1.28c-1.51,0-2.92-0.82-3.68-2.15
		c-0.21-0.37-0.09-0.85,0.28-1.07c0.37-0.21,0.84-0.09,1.05,0.28c0.48,0.84,1.38,1.37,2.34,1.37c0.77,0,1.5-0.33,2.02-0.92
		c0.25-0.29,0.62-0.45,1.01-0.45c0.39,0,0.75,0.17,1.01,0.45c0.51,0.58,1.25,0.92,2.02,0.92s1.5-0.33,2.02-0.92
		c0.51-0.58,1.51-0.58,2.02,0c0.51,0.58,1.25,0.92,2.02,0.92c0.77,0,1.5-0.33,2.02-0.92c0.51-0.58,1.51-0.58,2.02,0
		c0.51,0.58,1.25,0.92,2.02,0.92s1.5-0.33,2.02-0.92c0.51-0.58,1.51-0.58,2.02,0c0.51,0.58,1.25,0.92,2.02,0.92
		c0.77,0,1.5-0.33,2.02-0.92c0.51-0.58,1.51-0.58,2.02,0c0.51,0.58,1.25,0.92,2.02,0.92c0.77,0,1.5-0.33,2.02-0.92
		c0.51-0.58,1.51-0.58,2.02,0c0.51,0.58,1.25,0.92,2.02,0.92c0.77,0,1.5-0.33,2.02-0.92c0.51-0.58,1.51-0.58,2.02,0
		c0.51,0.58,1.25,0.92,2.02,0.92c0.96,0,1.86-0.52,2.34-1.37c0.21-0.37,0.69-0.5,1.05-0.28c0.37,0.22,0.49,0.69,0.28,1.07
		C49.03,28.2,47.62,29.02,46.11,29.02z"/>
	<path class="st0" d="M46.11,33.58c-1.14,0-2.23-0.46-3.02-1.28c-0.8,0.82-1.89,1.28-3.02,1.28c-1.14,0-2.23-0.46-3.02-1.28
		c-0.8,0.82-1.89,1.28-3.02,1.28c-1.14,0-2.23-0.46-3.02-1.28c-0.8,0.82-1.89,1.28-3.02,1.28c-1.14,0-2.23-0.46-3.02-1.28
		c-0.8,0.82-1.89,1.28-3.02,1.28c-1.14,0-2.23-0.46-3.02-1.28c-0.8,0.82-1.89,1.28-3.02,1.28s-2.23-0.46-3.02-1.28
		c-0.8,0.82-1.89,1.28-3.02,1.28c-1.14,0-2.23-0.46-3.02-1.28c-0.8,0.82-1.89,1.28-3.02,1.28c-1.51,0-2.92-0.82-3.68-2.15
		c-0.21-0.37-0.09-0.85,0.28-1.07c0.37-0.21,0.84-0.09,1.05,0.28c0.48,0.84,1.38,1.37,2.34,1.37c0.77,0,1.5-0.33,2.02-0.92
		c0.25-0.29,0.62-0.45,1.01-0.45c0.39,0,0.75,0.17,1.01,0.45c0.51,0.58,1.25,0.92,2.02,0.92c0.77,0,1.5-0.33,2.02-0.92
		c0.51-0.58,1.51-0.58,2.02,0c0.51,0.58,1.25,0.92,2.02,0.92c0.77,0,1.5-0.33,2.02-0.92c0.51-0.58,1.51-0.58,2.02,0
		c0.51,0.58,1.25,0.92,2.02,0.92s1.5-0.33,2.02-0.92c0.51-0.58,1.51-0.58,2.02,0c0.51,0.58,1.25,0.92,2.02,0.92
		c0.77,0,1.5-0.33,2.02-0.92c0.51-0.58,1.51-0.58,2.02,0c0.51,0.58,1.25,0.92,2.02,0.92c0.77,0,1.5-0.33,2.02-0.92
		c0.51-0.58,1.51-0.58,2.02,0c0.51,0.58,1.25,0.92,2.02,0.92c0.77,0,1.5-0.33,2.02-0.92c0.51-0.58,1.51-0.58,2.02,0
		c0.51,0.58,1.25,0.92,2.02,0.92c0.96,0,1.86-0.52,2.34-1.37c0.21-0.37,0.69-0.5,1.05-0.28c0.37,0.22,0.49,0.69,0.28,1.07
		C49.03,32.76,47.62,33.58,46.11,33.58z"/>
</g>
</svg>
